  0
SECTION
  2
HEADER
  9
$ACADVER
  1
AC1009
  9
$INSBASE
 10
0
 20
0
 30
0
  9
$EXTMIN
 10
0
 20
0
  9
$EXTMAX
 10
297
 20
210
  9
$LIMMIN
 10
0
 20
0
  9
$LIMMAX
 10
297
 20
210
  9
$LTSCALE
 40
1
  0
ENDSEC
  0
SECTION
  2
TABLES
  0
TABLE
  2
LTYPE
 70
     9
  0
LTYPE
  2
CONTINUOUS
 70
    64
  3
実線
 72
    65
 73
     0
 40
0.0
  0
LTYPE
  2
DASHED1
 70
    64
  3
--  --  --  --  --  --  --  --  
 72
    65
 73
     2
 40
2.5
 49
1.25
 49
-1.25
  0
LTYPE
  2
DASHED2
 70
    64
  3
----    ----    ----    ----    
 72
    65
 73
     2
 40
5.0
 49
2.5
 49
-2.5
  0
LTYPE
  2
DASHED3
 70
    64
  3
------  ------  ------  ------  
 72
    65
 73
     2
 40
5.0
 49
3.75
 49
-1.25
  0
LTYPE
  2
CENTER1
 70
    64
  3
----- - ----- - ----- - ----- - 
 72
    65
 73
     4
 40
10.0
 49
6.25
 49
-1.25
 49
1.25
 49
-1.25
  0
LTYPE
  2
CENTER2
 70
    64
  3
----------  --  ----------  --  
 72
    65
 73
     4
 40
20.0
 49
12.5
 49
-2.5
 49
2.5
 49
-2.5
  0
LTYPE
  2
PHANTOM1
 70
    64
  3
--- - - --- - - --- - - --- - - 
 72
    65
 73
     6
 40
10.0
 49
3.25
 49
-1.25
 49
1.25
 49
-1.25
 49
1.25
 49
-1.25
  0
LTYPE
  2
PHANTOM2
 70
    64
  3
--------  -  -  --------  -  -  
 72
    65
 73
     6
 40
20.0
 49
10.0
 49
-2.5
 49
1.25
 49
-2.5
 49
1.25
 49
-2.5
  0
LTYPE
  2
DOT
 70
    64
  3
-   -   -   -   -   -   -   -   
 72
    65
 73
     2
 40
2.5
 49
0.625
 49
-1.875
  0
LTYPE
  2
DUMMY
 70
    64
  3
ダミー
 72
    65
 73
     0
 40
0.0
  0
LTYPE
  2
RAND1
 70
    64
  3
ランダム線1
 72
    65
 73
     4
 40
10.0
 49
1.0
 49
-2.0
 49
3.0
 49
-4.0
  0
LTYPE
  2
RAND2
 70
    64
  3
ランダム線2
 72
    65
 73
     4
 40
14.0
 49
2.0
 49
-3.0
 49
4.0
 49
-5.0
  0
LTYPE
  2
RAND3
 70
    64
  3
ランダム線3
 72
    65
 73
     4
 40
18.0
 49
3.0
 49
-4.0
 49
5.0
 49
-6.0
  0
LTYPE
  2
RAND4
 70
    64
  3
ランダム線4
 72
    65
 73
     4
 40
22.0
 49
4.0
 49
-5.0
 49
6.0
 49
-7.0
  0
LTYPE
  2
RAND5
 70
    64
  3
ランダム線5
 72
    65
 73
     4
 40
26.0
 49
5.0
 49
-6.0
 49
7.0
 49
-8.0
  0
LTYPE
  2
LONG1
 70
    64
  3
----------  --  ----------  --  
 72
    65
 73
     4
 40
40.0
 49
32.5
 49
-2.5
 49
2.5
 49
-2.5
  0
LTYPE
  2
LONG2
 70
    64
  3
--------  -  -  --------  -  -  
 72
    65
 73
     6
 40
40.0
 49
30.0
 49
-2.5
 49
1.25
 49
-2.5
 49
1.25
 49
-2.5
  0
LTYPE
  2
LONG3
 70
    64
  3
+++++++++++++++..+++++++++++++++
 72
    65
 73
     2
 40
40.0
 49
37.5
 49
-2.5
  0
LTYPE
  2
LONG4
 70
    64
  3
+++++++++++++++..+++++++++++++++
 72
    65
 73
     2
 40
80.0
 49
75.0
 49
-5.0
  0
LTYPE
  2
LONG5
 70
    64
  3
----------  --  ----------  --  
 72
    65
 73
     4
 40
60.0
 49
37.5
 49
-7.5
 49
7.5
 49
-7.5
  0
LTYPE
  2
dashed
 70
   64
  3
-------   -------------   ------
 72
   65
 73
    2
 40
7.5
 49
6
 49
-1.5
  0
LTYPE
  2
dashed_spaced
 70
   64
  3
----        --------        ----
 72
   65
 73
    2
 40
12
 49
6
 49
-6
  0
LTYPE
  2
long_dashed_dotted
 70
   64
  3
------------- --- --------------
 72
   65
 73
    4
 40
15.25
 49
12
 49
-1.5
 49
0.25
 49
-1.5
  0
LTYPE
  2
long_dashed_double-dotted
 70
   64
  3
----------- --- --- ------------
 72
   65
 73
    6
 40
17
 49
12
 49
-1.5
 49
0.25
 49
-1.5
 49
0.25
 49
-1.5
  0
LTYPE
  2
long_dashed_triplicate-dotted
 70
   64
  3
--------- --- --- --- ----------
 72
   65
 73
    8
 40
18.75
 49
12
 49
-1.5
 49
0.25
 49
-1.5
 49
0.25
 49
-1.5
 49
0.25
 49
-1.5
  0
LTYPE
  2
dotted
 70
   64
  3
   -       -       -       -    
 72
   65
 73
    2
 40
1.75
 49
0.25
 49
-1.5
  0
LTYPE
  2
chain
 70
   64
  3
-------------- -- --------------
 72
   65
 73
    4
 40
18.5
 49
12
 49
-1.5
 49
3.5
 49
-1.5
  0
LTYPE
  2
chain_double_dash
 70
   64
  3
------------ -- -- -------------
 72
   65
 73
    6
 40
23.5
 49
12
 49
-1.5
 49
3.5
 49
-1.5
 49
3.5
 49
-1.5
  0
LTYPE
  2
dashed_dotted
 70
   64
  3
-----------     -     ----------
 72
   65
 73
    4
 40
9.25
 49
6
 49
-1.5
 49
0.25
 49
-1.5
  0
LTYPE
  2
double-dashed_dotted
 70
   64
  3
------   -----------   -   -----
 72
   65
 73
    6
 40
16.75
 49
6
 49
-1.5
 49
6
 49
-1.5
 49
0.25
 49
-1.5
  0
LTYPE
  2
dashed_double-dotted
 70
   64
  3
---------    -    -    ---------
 72
   65
 73
    6
 40
11
 49
6
 49
-1.5
 49
0.25
 49
-1.5
 49
0.25
 49
-1.5
  0
LTYPE
  2
double-dashed_double-dotted
 70
   64
  3
-----   ---------   -   -   ----
 72
   65
 73
    8
 40
18.5
 49
6
 49
-1.5
 49
6
 49
-1.5
 49
0.25
 49
-1.5
 49
0.25
 49
-1.5
  0
LTYPE
  2
dashed_triplicate-dotted
 70
   64
  3
-------    -    -    -    ------
 72
   65
 73
    8
 40
12.75
 49
6
 49
-1.5
 49
0.25
 49
-1.5
 49
0.25
 49
-1.5
 49
0.25
 49
-1.5
  0
LTYPE
  2
double-dashed_triplicate-dotted
 70
   64
  3
-----  ---------  -  -  -  -----
 72
   65
 73
   10
 40
20.25
 49
6
 49
-1.5
 49
6
 49
-1.5
 49
0.25
 49
-1.5
 49
0.25
 49
-1.5
 49
0.25
 49
-1.5
  0
LTYPE
  2
undefined
 70
   64
  3
--------------------------------
 72
   65
 73
    0
 40
0
  0
LTYPE
  2
_
 70
   64
  3
                                
 72
   65
 73
    0
 40
0
  0
LTYPE
  2
__18
 70
   64
  3
                                
 72
   65
 73
    0
 40
0
  0
LTYPE
  2
__19
 70
   64
  3
                                
 72
   65
 73
    0
 40
0
  0
LTYPE
  2
__20
 70
   64
  3
                                
 72
   65
 73
    0
 40
0
  0
LTYPE
  2
__21
 70
   64
  3
                                
 72
   65
 73
    0
 40
0
  0
LTYPE
  2
__22
 70
   64
  3
                                
 72
   65
 73
    0
 40
0
  0
LTYPE
  2
__23
 70
   64
  3
                                
 72
   65
 73
    0
 40
0
  0
LTYPE
  2
__24
 70
   64
  3
                                
 72
   65
 73
    0
 40
0
  0
LTYPE
  2
__25
 70
   64
  3
                                
 72
   65
 73
    0
 40
0
  0
LTYPE
  2
__26
 70
   64
  3
                                
 72
   65
 73
    0
 40
0
  0
LTYPE
  2
__27
 70
   64
  3
                                
 72
   65
 73
    0
 40
0
  0
LTYPE
  2
__28
 70
   64
  3
                                
 72
   65
 73
    0
 40
0
  0
LTYPE
  2
__29
 70
   64
  3
                                
 72
   65
 73
    0
 40
0
  0
LTYPE
  2
__30
 70
   64
  3
                                
 72
   65
 73
    0
 40
0
  0
LTYPE
  2
__31
 70
   64
  3
                                
 72
   65
 73
    0
 40
0
  0
LTYPE
  2
__32
 70
   64
  3
                                
 72
   65
 73
    0
 40
0
  0
ENDTAB
  0
TABLE
  2
STYLE
  5
3
100
AcDbSymbolTable
 70
     1
  0
STYLE
  5
10
100
AcDbSymbolTableRecord
100
AcDbTextStyleTableRecord
  2
STANDARD
 70
     0
 40
0.0
 41
1.0
 50
0.0
 71
     0
 42
0.2
  3
txt
  4
bigfont.shx
  0
STYLE
  5
26
100
AcDbSymbolTableRecord
100
AcDbTextStyleTableRecord
  2
TATEGAKI
 70
    68
 40
0.0
 41
1.0
 50
0.0
 71
     0
 42
1.0
  3
txt
  4
bigfont.shx
  0
ENDTAB
  0
TABLE
  2
LAYER
 70
    2
  0
LAYER
  2
_0-0_
 70
   64
 62
    7
  6
CONTINUOUS
  0
LAYER
  2
ADD_LINE
 70
   64
 62
    7
  6
CONTINUOUS
  0
ENDTAB
  0
ENDSEC
  0
SECTION
  2
BLOCKS
  0
ENDSEC
  0
SECTION
  2
ENTITIES
  0
ARC
  8
_0-0_
  6
CONTINUOUS
 62
    7
 10
168.33019831108799
 20
105.93374219107029
 40
0.3555276618210784
 50
318.90160027437116
 51
81.098399725629278
  0
ARC
  8
_0-0_
  6
CONTINUOUS
 62
    7
 10
167.03067460765663
 20
107.48245423329595
 40
0.3555276618210784
 50
358.90160027437116
 51
69.999999999999943
  0
LINE
  8
_0-0_
  6
CONTINUOUS
 62
    7
 10
163.73945346305143
 20
106.44456355964817
 11
162.72060961017479
 21
106.28498771572348
  0
LINE
  8
_0-0_
  6
CONTINUOUS
 62
    7
 10
167.38613694052938
 20
107.4756389395671
 11
167.36636809044071
 21
106.44456355964817
  0
LINE
  8
_0-0_
  6
CONTINUOUS
 62
    7
 10
167.36636809044071
 20
106.44456355964817
 11
168.38521194331735
 21
106.28498771572348
  0
LINE
  8
_0-0_
  6
CONTINUOUS
 62
    7
 10
168.59811746955799
 20
105.70003458990019
 11
167.920211172936
 21
104.92289219657128
  0
ARC
  8
_0-0_
  6
CONTINUOUS
 62
    7
 10
164.07514694583551
 20
107.48245423329595
 40
0.3555276618210784
 50
58.901600274370707
 51
181.09839972562883
  0
LINE
  8
_0-0_
  6
CONTINUOUS
 62
    7
 10
165.14183337695749
 20
107.25422798044796
 11
164.25878032977536
 21
107.78688599678784
  0
LINE
  8
_0-0_
  6
CONTINUOUS
 62
    7
 10
163.71968461296276
 20
107.4756389395671
 11
163.73945346305143
 21
106.44456355964817
  0
ARC
  8
_0-0_
  6
CONTINUOUS
 62
    7
 10
162.77562324240415
 20
105.93374219107029
 40
0.3555276618210783
 50
98.901600274370679
 51
221.09839972562878
  0
LINE
  8
_0-0_
  6
CONTINUOUS
 62
    7
 10
162.50770408393415
 20
105.70003458990019
 11
163.18561038055614
 21
104.92289219657128
  0
ARC
  8
_0-0_
  6
CONTINUOUS
 62
    7
 10
167.03067460765663
 20
102.36333015984661
 40
0.3555276618210784
 50
238.9016002743707
 51
1.098399725628806
  0
LINE
  8
_0-0_
  6
CONTINUOUS
 62
    7
 10
165.96398817653465
 20
102.59155641269458
 11
166.84704122371678
 21
102.05889839635472
  0
LINE
  8
_0-0_
  6
CONTINUOUS
 62
    7
 10
167.38613694052938
 20
102.37014545357544
 11
167.36636809044071
 21
103.40122083349439
  0
ARC
  8
_0-0_
  6
CONTINUOUS
 62
    7
 10
168.33019831108799
 20
103.91204220207227
 40
0.3555276618210784
 50
278.9016002743707
 51
41.098399725628809
  0
LINE
  8
_0-0_
  6
CONTINUOUS
 62
    7
 10
167.36636809044071
 20
103.40122083349439
 11
168.38521194331735
 21
103.56079667741907
  0
LINE
  8
_0-0_
  6
CONTINUOUS
 62
    7
 10
168.59811746955799
 20
104.14574980324236
 11
167.920211172936
 21
104.92289219657128
  0
LINE
  8
_0-0_
  6
CONTINUOUS
 62
    7
 10
163.71968461296276
 20
102.37014545357544
 11
163.73945346305143
 21
103.40122083349439
  0
ARC
  8
_0-0_
  6
CONTINUOUS
 62
    7
 10
162.77562324240415
 20
103.91204220207227
 40
0.3555276618210783
 50
138.90160027437121
 51
261.09839972562929
  0
LINE
  8
_0-0_
  6
CONTINUOUS
 62
    7
 10
163.73945346305143
 20
103.40122083349439
 11
162.72060961017479
 21
103.56079667741907
  0
LINE
  8
_0-0_
  6
CONTINUOUS
 62
    7
 10
162.50770408393415
 20
104.14574980324236
 11
163.18561038055614
 21
104.92289219657128
  0
LINE
  8
_0-0_
  6
CONTINUOUS
 62
    7
 10
165.96398817653465
 20
102.59155641269458
 11
165.65291077674606
 21
102.20605599715887
  0
LINE
  8
_0-0_
  6
CONTINUOUS
 62
    7
 10
165.65291077674606
 20
107.88757694801461
 11
165.78945203806495
 21
108.05678471756641
  0
LINE
  8
_0-0_
  6
CONTINUOUS
 62
    7
 10
163.95354932398325
 20
102.02924343954805
 11
164.91809116237433
 21
101.67817892066929
  0
LINE
  8
_0-0_
  6
CONTINUOUS
 62
    7
 10
166.18773039111781
 20
108.16760547247326
 11
167.15227222950889
 21
107.81654095359449
  0
ARC
  8
_0-0_
  6
CONTINUOUS
 62
    7
 10
165.03968878422662
 20
102.01226564096782
 40
0.3555276618210784
 50
249.99999999999997
 51
321.09839972562934
  0
ARC
  8
_0-0_
  6
CONTINUOUS
 62
    7
 10
164.07514694583551
 20
102.36333015984661
 40
0.3555276618210784
 50
178.90160027437119
 51
249.99999999999991
  0
ARC
  8
_0-0_
  6
CONTINUOUS
 62
    7
 10
166.06613276926552
 20
107.83351875217472
 40
0.3555276618210784
 50
69.999999999999943
 51
141.09839972562932
  0
LINE
  8
_0-0_
  6
CONTINUOUS
 62
    7
 10
165.65291077674606
 20
102.20605599715887
 11
165.31636951542719
 21
101.78899967557615
  0
LINE
  8
_0-0_
  6
CONTINUOUS
 62
    7
 10
165.14183337695749
 20
107.25422798044796
 11
165.65291077674606
 21
107.88757694801461
  0
ARC
  8
_0-0_
  6
CONTINUOUS
 62
    7
 10
156.89265673890167
 20
99.922892196571268
 40
0.5
 50
301.43254373756678
 51
118.56745626243346
  0
ARC
  8
_0-0_
  6
CONTINUOUS
 62
    7
 10
155.55291077674607
 20
104.92289219657128
 40
0.5
 50
271.43254373756644
 51
88.567456262433523
  0
ARC
  8
_0-0_
  6
CONTINUOUS
 62
    7
 10
156.89265673890167
 20
109.92289219657128
 40
0.5
 50
241.43254373756656
 51
58.567456262433786
  0
ARC
  8
_0-0_
  6
CONTINUOUS
 62
    7
 10
165.55291077674607
 20
104.92289219657128
 40
10
 50
152.86508747513292
 51
177.1349125248671
  0
ARC
  8
_0-0_
  6
CONTINUOUS
 62
    7
 10
160.55291077674607
 20
113.58314623441566
 40
0.5
 50
211.43254373756712
 51
28.567456262433413
  0
ARC
  8
_0-0_
  6
CONTINUOUS
 62
    7
 10
165.55291077674607
 20
104.92289219657128
 40
10
 50
122.8650874751329
 51
147.13491252486701
  0
ARC
  8
_0-0_
  6
CONTINUOUS
 62
    7
 10
165.55291077674607
 20
114.92289219657128
 40
0.5
 50
181.43254373756639
 51
358.56745626243355
  0
ARC
  8
_0-0_
  6
CONTINUOUS
 62
    7
 10
165.55291077674607
 20
104.92289219657128
 40
10
 50
92.865087475132995
 51
117.13491252486706
  0
ARC
  8
_0-0_
  6
CONTINUOUS
 62
    7
 10
165.55291077674607
 20
104.92289219657128
 40
10
 50
62.865087475133009
 51
87.134912524867004
  0
ARC
  8
_0-0_
  6
CONTINUOUS
 62
    7
 10
170.55291077674607
 20
113.58314623441566
 40
0.5
 50
151.43254373756658
 51
328.56745626243287
  0
ARC
  8
_0-0_
  6
CONTINUOUS
 62
    7
 10
174.21316481459047
 20
109.92289219657128
 40
0.5
 50
121.43254373756654
 51
298.56745626243304
  0
ARC
  8
_0-0_
  6
CONTINUOUS
 62
    7
 10
175.55291077674607
 20
104.92289219657128
 40
0.5
 50
91.432543737566845
 51
268.56745626243309
  0
ARC
  8
_0-0_
  6
CONTINUOUS
 62
    7
 10
165.55291077674607
 20
104.92289219657128
 40
10
 50
32.865087475133009
 51
57.134912524867033
  0
ARC
  8
_0-0_
  6
CONTINUOUS
 62
    7
 10
165.55291077674607
 20
104.92289219657128
 40
10
 50
2.8650874751329142
 51
27.134912524867093
  0
ARC
  8
_0-0_
  6
CONTINUOUS
 62
    7
 10
174.21316481459047
 20
99.922892196571268
 40
0.5
 50
61.43254373756693
 51
238.56745626243321
  0
ARC
  8
_0-0_
  6
CONTINUOUS
 62
    7
 10
165.55291077674607
 20
104.92289219657128
 40
10
 50
332.865087475133
 51
357.13491252486699
  0
ARC
  8
_0-0_
  6
CONTINUOUS
 62
    7
 10
170.55291077674607
 20
96.2626381587269
 40
0.5
 50
31.432543737565666
 51
208.5674562624338
  0
ARC
  8
_0-0_
  6
CONTINUOUS
 62
    7
 10
165.55291077674607
 20
104.92289219657128
 40
10
 50
302.865087475133
 51
327.13491252486699
  0
LINE
  8
_0-0_
  6
CONTINUOUS
 62
    7
 10
161.79310315561073
 20
99.010714370080194
 11
160.29535315551567
 21
96.416535272879258
  0
LINE
  8
_0-0_
  6
CONTINUOUS
 62
    7
 10
160.81493916787974
 20
96.116552148993235
 11
162.31268916797483
 21
98.7107312461942
  0
ARC
  8
_0-0_
  6
CONTINUOUS
 62
    7
 10
162.05291077674607
 20
98.860714370080216
 40
0.2999999999999999
 50
329.14053107519282
 51
150.00000000000011
  0
ARC
  8
_0-0_
  6
CONTINUOUS
 62
    7
 10
165.55291077674607
 20
104.92289219657128
 40
10
 50
182.86508747513286
 51
207.13491252486707
  0
ARC
  8
_0-0_
  6
CONTINUOUS
 62
    7
 10
165.55291077674607
 20
104.92289219657128
 40
10
 50
212.86508747513298
 51
238.28106215032835
  0
ARC
  8
_0-0_
  6
CONTINUOUS
 62
    7
 10
165.55291077674607
 20
104.92289219657128
 40
10
 50
241.71893784967167
 51
267.1349125248671
  0
ARC
  8
_0-0_
  6
CONTINUOUS
 62
    7
 10
165.55291077674607
 20
104.92289219657128
 40
10
 50
272.86508747513289
 51
297.13491252486699
  0
ARC
  8
_0-0_
  6
CONTINUOUS
 62
    7
 10
165.55291077674607
 20
94.922892196571268
 40
0.5
 50
1.4325437375668428
 51
178.56745626243312
  0
ARC
  8
_0-0_
  6
CONTINUOUS
 62
    7
 10
188.33019831108799
 20
105.93374219107029
 40
0.3555276618210784
 50
318.90160027437116
 51
81.098399725629278
  0
ARC
  8
_0-0_
  6
CONTINUOUS
 62
    7
 10
187.03067460765663
 20
107.48245423329595
 40
0.3555276618210784
 50
358.90160027437116
 51
69.999999999999943
  0
LINE
  8
_0-0_
  6
CONTINUOUS
 62
    7
 10
183.73945346305143
 20
106.44456355964817
 11
182.72060961017479
 21
106.28498771572348
  0
LINE
  8
_0-0_
  6
CONTINUOUS
 62
    7
 10
187.38613694052941
 20
107.4756389395671
 11
187.36636809044071
 21
106.44456355964817
  0
LINE
  8
_0-0_
  6
CONTINUOUS
 62
    7
 10
187.36636809044071
 20
106.44456355964817
 11
188.38521194331735
 21
106.28498771572348
  0
LINE
  8
_0-0_
  6
CONTINUOUS
 62
    7
 10
188.59811746955799
 20
105.70003458990019
 11
187.92021117293603
 21
104.92289219657128
  0
ARC
  8
_0-0_
  6
CONTINUOUS
 62
    7
 10
184.07514694583551
 20
107.48245423329595
 40
0.3555276618210784
 50
58.901600274370707
 51
181.09839972562883
  0
LINE
  8
_0-0_
  6
CONTINUOUS
 62
    7
 10
185.14183337695749
 20
107.25422798044796
 11
184.25878032977533
 21
107.78688599678784
  0
LINE
  8
_0-0_
  6
CONTINUOUS
 62
    7
 10
183.71968461296273
 20
107.4756389395671
 11
183.73945346305143
 21
106.44456355964817
  0
ARC
  8
_0-0_
  6
CONTINUOUS
 62
    7
 10
182.77562324240415
 20
105.93374219107029
 40
0.3555276618210783
 50
98.901600274370679
 51
221.09839972562878
  0
LINE
  8
_0-0_
  6
CONTINUOUS
 62
    7
 10
182.50770408393412
 20
105.70003458990019
 11
183.18561038055611
 21
104.92289219657128
  0
ARC
  8
_0-0_
  6
CONTINUOUS
 62
    7
 10
187.03067460765663
 20
102.36333015984661
 40
0.3555276618210784
 50
238.9016002743707
 51
1.098399725628806
  0
LINE
  8
_0-0_
  6
CONTINUOUS
 62
    7
 10
185.96398817653465
 20
102.59155641269458
 11
186.84704122371681
 21
102.05889839635472
  0
LINE
  8
_0-0_
  6
CONTINUOUS
 62
    7
 10
187.38613694052941
 20
102.37014545357544
 11
187.36636809044071
 21
103.40122083349439
  0
ARC
  8
_0-0_
  6
CONTINUOUS
 62
    7
 10
188.33019831108799
 20
103.91204220207227
 40
0.3555276618210784
 50
278.9016002743707
 51
41.098399725628809
  0
LINE
  8
_0-0_
  6
CONTINUOUS
 62
    7
 10
187.36636809044071
 20
103.40122083349439
 11
188.38521194331735
 21
103.56079667741907
  0
LINE
  8
_0-0_
  6
CONTINUOUS
 62
    7
 10
188.59811746955799
 20
104.14574980324236
 11
187.92021117293603
 21
104.92289219657128
  0
LINE
  8
_0-0_
  6
CONTINUOUS
 62
    7
 10
183.71968461296273
 20
102.37014545357544
 11
183.73945346305143
 21
103.40122083349439
  0
ARC
  8
_0-0_
  6
CONTINUOUS
 62
    7
 10
182.77562324240415
 20
103.91204220207227
 40
0.3555276618210783
 50
138.90160027437121
 51
261.09839972562929
  0
LINE
  8
_0-0_
  6
CONTINUOUS
 62
    7
 10
183.73945346305143
 20
103.40122083349439
 11
182.72060961017479
 21
103.56079667741907
  0
LINE
  8
_0-0_
  6
CONTINUOUS
 62
    7
 10
182.50770408393412
 20
104.14574980324236
 11
183.18561038055611
 21
104.92289219657128
  0
LINE
  8
_0-0_
  6
CONTINUOUS
 62
    7
 10
185.96398817653465
 20
102.59155641269458
 11
185.65291077674606
 21
102.20605599715887
  0
LINE
  8
_0-0_
  6
CONTINUOUS
 62
    7
 10
185.65291077674606
 20
107.88757694801461
 11
185.78945203806495
 21
108.05678471756641
  0
LINE
  8
_0-0_
  6
CONTINUOUS
 62
    7
 10
183.95354932398322
 20
102.02924343954805
 11
184.91809116237436
 21
101.67817892066929
  0
LINE
  8
_0-0_
  6
CONTINUOUS
 62
    7
 10
186.18773039111778
 20
108.16760547247326
 11
187.15227222950892
 21
107.81654095359449
  0
ARC
  8
_0-0_
  6
CONTINUOUS
 62
    7
 10
185.03968878422662
 20
102.01226564096782
 40
0.3555276618210784
 50
249.99999999999997
 51
321.09839972562934
  0
ARC
  8
_0-0_
  6
CONTINUOUS
 62
    7
 10
184.07514694583551
 20
102.36333015984661
 40
0.3555276618210784
 50
178.90160027437119
 51
249.99999999999991
  0
ARC
  8
_0-0_
  6
CONTINUOUS
 62
    7
 10
186.06613276926552
 20
107.83351875217472
 40
0.3555276618210784
 50
69.999999999999943
 51
141.09839972562932
  0
LINE
  8
_0-0_
  6
CONTINUOUS
 62
    7
 10
185.65291077674606
 20
102.20605599715887
 11
185.31636951542719
 21
101.78899967557615
  0
LINE
  8
_0-0_
  6
CONTINUOUS
 62
    7
 10
185.14183337695749
 20
107.25422798044796
 11
185.65291077674606
 21
107.88757694801461
  0
LINE
  8
_0-0_
  6
CONTINUOUS
 62
    7
 10
182.79772009535761
 20
100.75049189108881
 11
183.09772009535765
 21
101.27010713335951
  0
LINE
  8
_0-0_
  6
CONTINUOUS
 62
    7
 10
183.31710145813451
 20
100.45062692147749
 11
183.60810145813456
 21
100.95465370648011
  0
ARC
  8
_0-0_
  6
CONTINUOUS
 62
    7
 10
180.55291077674607
 20
104.92289219657128
 40
0.2999999999999999
 50
271.71913132087786
 51
88.280868679122093
  0
ARC
  8
_0-0_
  6
CONTINUOUS
 62
    7
 10
181.22278375782389
 20
102.42289219657126
 40
0.2999999999999999
 50
301.71913132087775
 51
118.28086867912274
  0
ARC
  8
_0-0_
  6
CONTINUOUS
 62
    7
 10
185.55291077674607
 20
104.92289219657128
 40
5
 50
183.43826264175555
 51
206.56173735824438
  0
ARC
  8
_0-0_
  6
CONTINUOUS
 62
    7
 10
183.35291077674605
 20
101.11238041991975
 40
0.2999999999999999
 50
328.28086867912338
 51
151.71913132087848
  0
ARC
  8
_0-0_
  6
CONTINUOUS
 62
    7
 10
185.55291077674607
 20
104.92289219657128
 40
5
 50
213.43826264175567
 51
236.56173735824435
  0
ARC
  8
_0-0_
  6
CONTINUOUS
 62
    7
 10
181.22278375782389
 20
107.42289219657128
 40
0.2999999999999999
 50
241.71913132087723
 51
58.280868679122278
  0
ARC
  8
_0-0_
  6
CONTINUOUS
 62
    7
 10
185.55291077674607
 20
104.92289219657128
 40
5
 50
153.43826264175564
 51
176.56173735824438
  0
ARC
  8
_0-0_
  6
CONTINUOUS
 62
    7
 10
183.05291077674607
 20
109.25301921549348
 40
0.2999999999999999
 50
211.71913132087772
 51
28.280868679122768
  0
ARC
  8
_0-0_
  6
CONTINUOUS
 62
    7
 10
185.55291077674607
 20
104.92289219657128
 40
5
 50
123.43826264175564
 51
146.56173735824438
  0
ARC
  8
_0-0_
  6
CONTINUOUS
 62
    7
 10
185.55291077674607
 20
109.92289219657128
 40
0.2999999999999999
 50
181.71913132087789
 51
358.28086867912213
  0
ARC
  8
_0-0_
  6
CONTINUOUS
 62
    7
 10
185.55291077674607
 20
104.92289219657128
 40
5
 50
93.438262641755599
 51
116.56173735824437
  0
ARC
  8
_0-0_
  6
CONTINUOUS
 62
    7
 10
185.55291077674607
 20
104.92289219657128
 40
5
 50
63.438262641755642
 51
86.5617373582444
  0
ARC
  8
_0-0_
  6
CONTINUOUS
 62
    7
 10
188.05291077674607
 20
109.25301921549348
 40
0.2999999999999999
 50
151.71913132087726
 51
328.28086867912224
  0
ARC
  8
_0-0_
  6
CONTINUOUS
 62
    7
 10
185.55291077674607
 20
104.92289219657128
 40
5
 50
33.438262641755429
 51
56.561737358244371
  0
ARC
  8
_0-0_
  6
CONTINUOUS
 62
    7
 10
189.88303779566825
 20
107.42289219657128
 40
0.2999999999999999
 50
121.7191313208789
 51
298.28086867912037
  0
ARC
  8
_0-0_
  6
CONTINUOUS
 62
    7
 10
185.55291077674607
 20
104.92289219657128
 40
5
 50
3.4382626417556689
 51
26.561737358244478
  0
ARC
  8
_0-0_
  6
CONTINUOUS
 62
    7
 10
190.55291077674607
 20
104.92289219657128
 40
0.2999999999999999
 50
91.719131320877892
 51
268.28086867912207
  0
ARC
  8
_0-0_
  6
CONTINUOUS
 62
    7
 10
189.88303779566825
 20
102.42289219657126
 40
0.2999999999999999
 50
61.71913132087964
 51
238.2808686791204
  0
ARC
  8
_0-0_
  6
CONTINUOUS
 62
    7
 10
185.55291077674607
 20
104.92289219657128
 40
5
 50
333.43826264175555
 51
356.56173735824432
  0
ARC
  8
_0-0_
  6
CONTINUOUS
 62
    7
 10
188.05291077674607
 20
100.59276517764908
 40
0.2999999999999999
 50
31.719131320877743
 51
208.2808686791227
  0
ARC
  8
_0-0_
  6
CONTINUOUS
 62
    7
 10
185.55291077674607
 20
104.92289219657128
 40
5
 50
303.43826264175561
 51
326.56173735824438
  0
ARC
  8
_0-0_
  6
CONTINUOUS
 62
    7
 10
185.55291077674607
 20
99.922892196571268
 40
0.2999999999999999
 50
1.7191313208778937
 51
178.2808686791221
  0
ARC
  8
_0-0_
  6
CONTINUOUS
 62
    7
 10
185.55291077674607
 20
104.92289219657128
 40
5
 50
243.43826264175567
 51
266.56173735824444
  0
ARC
  8
_0-0_
  6
CONTINUOUS
 62
    7
 10
185.55291077674607
 20
104.92289219657128
 40
5
 50
273.43826264175561
 51
296.56173735824438
  0
ARC
  8
_0-0_
  6
CONTINUOUS
 62
    7
 10
203.33019831108799
 20
105.93374219107029
 40
0.3555276618210784
 50
318.90160027437116
 51
81.098399725629278
  0
ARC
  8
_0-0_
  6
CONTINUOUS
 62
    7
 10
202.03067460765663
 20
107.48245423329595
 40
0.3555276618210784
 50
358.90160027437116
 51
69.999999999999943
  0
LINE
  8
_0-0_
  6
CONTINUOUS
 62
    7
 10
198.73945346305143
 20
106.44456355964817
 11
197.72060961017479
 21
106.28498771572348
  0
LINE
  8
_0-0_
  6
CONTINUOUS
 62
    7
 10
202.38613694052941
 20
107.4756389395671
 11
202.36636809044071
 21
106.44456355964817
  0
LINE
  8
_0-0_
  6
CONTINUOUS
 62
    7
 10
202.36636809044071
 20
106.44456355964817
 11
203.38521194331735
 21
106.28498771572348
  0
LINE
  8
_0-0_
  6
CONTINUOUS
 62
    7
 10
203.59811746955801
 20
105.70003458990019
 11
202.92021117293603
 21
104.92289219657128
  0
ARC
  8
_0-0_
  6
CONTINUOUS
 62
    7
 10
199.07514694583551
 20
107.48245423329595
 40
0.3555276618210784
 50
58.901600274370707
 51
181.09839972562883
  0
LINE
  8
_0-0_
  6
CONTINUOUS
 62
    7
 10
200.14183337695749
 20
107.25422798044796
 11
199.25878032977533
 21
107.78688599678784
  0
LINE
  8
_0-0_
  6
CONTINUOUS
 62
    7
 10
198.71968461296273
 20
107.4756389395671
 11
198.73945346305143
 21
106.44456355964817
  0
ARC
  8
_0-0_
  6
CONTINUOUS
 62
    7
 10
197.77562324240415
 20
105.93374219107029
 40
0.3555276618210783
 50
98.901600274370679
 51
221.09839972562878
  0
LINE
  8
_0-0_
  6
CONTINUOUS
 62
    7
 10
197.50770408393412
 20
105.70003458990019
 11
198.18561038055611
 21
104.92289219657128
  0
ARC
  8
_0-0_
  6
CONTINUOUS
 62
    7
 10
202.03067460765663
 20
102.36333015984661
 40
0.3555276618210784
 50
238.9016002743707
 51
1.098399725628806
  0
LINE
  8
_0-0_
  6
CONTINUOUS
 62
    7
 10
200.96398817653465
 20
102.59155641269458
 11
201.84704122371681
 21
102.05889839635472
  0
LINE
  8
_0-0_
  6
CONTINUOUS
 62
    7
 10
202.38613694052941
 20
102.37014545357544
 11
202.36636809044071
 21
103.40122083349439
  0
ARC
  8
_0-0_
  6
CONTINUOUS
 62
    7
 10
203.33019831108799
 20
103.91204220207227
 40
0.3555276618210784
 50
278.9016002743707
 51
41.098399725628809
  0
LINE
  8
_0-0_
  6
CONTINUOUS
 62
    7
 10
202.36636809044071
 20
103.40122083349439
 11
203.38521194331735
 21
103.56079667741907
  0
LINE
  8
_0-0_
  6
CONTINUOUS
 62
    7
 10
203.59811746955801
 20
104.14574980324236
 11
202.92021117293603
 21
104.92289219657128
  0
LINE
  8
_0-0_
  6
CONTINUOUS
 62
    7
 10
198.71968461296273
 20
102.37014545357544
 11
198.73945346305143
 21
103.40122083349439
  0
ARC
  8
_0-0_
  6
CONTINUOUS
 62
    7
 10
197.77562324240415
 20
103.91204220207227
 40
0.3555276618210783
 50
138.90160027437121
 51
261.09839972562929
  0
LINE
  8
_0-0_
  6
CONTINUOUS
 62
    7
 10
198.73945346305143
 20
103.40122083349439
 11
197.72060961017479
 21
103.56079667741907
  0
LINE
  8
_0-0_
  6
CONTINUOUS
 62
    7
 10
197.50770408393412
 20
104.14574980324236
 11
198.18561038055611
 21
104.92289219657128
  0
LINE
  8
_0-0_
  6
CONTINUOUS
 62
    7
 10
200.96398817653465
 20
102.59155641269458
 11
200.65291077674606
 21
102.20605599715887
  0
LINE
  8
_0-0_
  6
CONTINUOUS
 62
    7
 10
200.65291077674606
 20
107.88757694801461
 11
200.78945203806495
 21
108.05678471756641
  0
LINE
  8
_0-0_
  6
CONTINUOUS
 62
    7
 10
198.95354932398322
 20
102.02924343954805
 11
199.91809116237436
 21
101.67817892066929
  0
LINE
  8
_0-0_
  6
CONTINUOUS
 62
    7
 10
201.18773039111778
 20
108.16760547247326
 11
202.15227222950892
 21
107.81654095359449
  0
ARC
  8
_0-0_
  6
CONTINUOUS
 62
    7
 10
200.03968878422662
 20
102.01226564096782
 40
0.3555276618210784
 50
249.99999999999997
 51
321.09839972562934
  0
ARC
  8
_0-0_
  6
CONTINUOUS
 62
    7
 10
199.07514694583551
 20
102.36333015984661
 40
0.3555276618210784
 50
178.90160027437119
 51
249.99999999999991
  0
ARC
  8
_0-0_
  6
CONTINUOUS
 62
    7
 10
201.06613276926552
 20
107.83351875217472
 40
0.3555276618210784
 50
69.999999999999943
 51
141.09839972562932
  0
LINE
  8
_0-0_
  6
CONTINUOUS
 62
    7
 10
200.65291077674606
 20
102.20605599715887
 11
200.31636951542719
 21
101.78899967557615
  0
LINE
  8
_0-0_
  6
CONTINUOUS
 62
    7
 10
200.14183337695749
 20
107.25422798044796
 11
200.65291077674606
 21
107.88757694801461
  0
LINE
  8
_0-0_
  6
CONTINUOUS
 62
    7
 10
195.05291077674607
 20
104.92289219657128
 11
194.57219878091603
 21
105.4036041924013
  0
LINE
  8
_0-0_
  6
CONTINUOUS
 62
    7
 10
195.05291077674607
 20
104.92289219657128
 11
194.57219878091603
 21
104.44218020074126
  0
LINE
  8
_0-0_
  6
CONTINUOUS
 62
    7
 10
195.78977105593168
 20
102.17289219657126
 11
195.13310625772393
 21
102.34884499894897
  0
LINE
  8
_0-0_
  6
CONTINUOUS
 62
    7
 10
195.78977105593168
 20
102.17289219657126
 11
195.61381825355397
 21
101.51622739836355
  0
LINE
  8
_0-0_
  6
CONTINUOUS
 62
    7
 10
200.55291077674607
 20
99.422892196571268
 11
200.07219878091603
 21
98.942180200741262
  0
LINE
  8
_0-0_
  6
CONTINUOUS
 62
    7
 10
200.55291077674607
 20
99.422892196571268
 11
201.0336227725761
 21
98.942180200741262
  0
LINE
  8
_0-0_
  6
CONTINUOUS
 62
    7
 10
203.30291077674607
 20
100.15975247575687
 11
203.12695797436836
 21
99.503087677549132
  0
LINE
  8
_0-0_
  6
CONTINUOUS
 62
    7
 10
203.30291077674607
 20
100.15975247575687
 11
203.95957557495381
 21
99.983799673379166
  0
LINE
  8
_0-0_
  6
CONTINUOUS
 62
    7
 10
205.31605049756046
 20
102.17289219657126
 11
205.49200329993817
 21
101.51622739836355
  0
LINE
  8
_0-0_
  6
CONTINUOUS
 62
    7
 10
205.31605049756046
 20
102.17289219657126
 11
205.97271529576821
 21
102.34884499894897
  0
LINE
  8
_0-0_
  6
CONTINUOUS
 62
    7
 10
206.05291077674607
 20
104.92289219657128
 11
206.5336227725761
 21
104.44218020074126
  0
LINE
  8
_0-0_
  6
CONTINUOUS
 62
    7
 10
206.05291077674607
 20
104.92289219657128
 11
206.5336227725761
 21
105.4036041924013
  0
LINE
  8
_0-0_
  6
CONTINUOUS
 62
    7
 10
205.31605049756046
 20
107.67289219657128
 11
205.97271529576821
 21
107.49693939419357
  0
LINE
  8
_0-0_
  6
CONTINUOUS
 62
    7
 10
205.31605049756046
 20
107.67289219657128
 11
205.49200329993817
 21
108.32955699477901
  0
LINE
  8
_0-0_
  6
CONTINUOUS
 62
    7
 10
203.30291077674607
 20
109.68603191738569
 11
203.95957557495381
 21
109.86198471976339
  0
LINE
  8
_0-0_
  6
CONTINUOUS
 62
    7
 10
203.30291077674607
 20
109.68603191738569
 11
203.12695797436836
 21
110.34269671559343
  0
LINE
  8
_0-0_
  6
CONTINUOUS
 62
    7
 10
200.55291077674607
 20
110.42289219657128
 11
201.0336227725761
 21
110.9036041924013
  0
LINE
  8
_0-0_
  6
CONTINUOUS
 62
    7
 10
200.55291077674607
 20
110.42289219657128
 11
200.07219878091603
 21
110.9036041924013
  0
LINE
  8
_0-0_
  6
CONTINUOUS
 62
    7
 10
197.80291077674607
 20
109.68603191738569
 11
197.97886357912378
 21
110.34269671559341
  0
LINE
  8
_0-0_
  6
CONTINUOUS
 62
    7
 10
197.80291077674607
 20
109.68603191738569
 11
197.14624597853833
 21
109.86198471976339
  0
LINE
  8
_0-0_
  6
CONTINUOUS
 62
    7
 10
195.78977105593168
 20
107.67289219657128
 11
195.61381825355397
 21
108.32955699477901
  0
LINE
  8
_0-0_
  6
CONTINUOUS
 62
    7
 10
195.78977105593168
 20
107.67289219657128
 11
195.13310625772393
 21
107.49693939419357
  0
LINE
  8
_0-0_
  6
CONTINUOUS
 62
    7
 10
197.81638719530991
 20
99.583281846719529
 11
198.56638719530991
 21
100.88231995239618
  0
LINE
  8
_0-0_
  6
CONTINUOUS
 62
    7
 10
198.56638719530991
 20
100.88231995239618
 11
198.04693435818222
 21
101.18222618774316
  0
LINE
  8
_0-0_
  6
CONTINUOUS
 62
    7
 10
197.29693435818222
 20
99.88318808206651
 11
198.04693435818222
 21
101.18222618774316
  0
ARC
  8
_0-0_
  6
CONTINUOUS
 62
    7
 10
200.55291077674607
 20
104.92289219657128
 40
6
 50
184.59538668971933
 51
205.40461331028063
  0
ARC
  8
_0-0_
  6
CONTINUOUS
 62
    7
 10
200.55291077674607
 20
104.92289219657128
 40
6
 50
154.59538668971936
 51
175.40461331028063
  0
ARC
  8
_0-0_
  6
CONTINUOUS
 62
    7
 10
200.55291077674607
 20
104.92289219657128
 40
6
 50
124.59538668971937
 51
145.40461331028063
  0
ARC
  8
_0-0_
  6
CONTINUOUS
 62
    7
 10
200.55291077674607
 20
104.92289219657128
 40
6
 50
94.595386689719376
 51
115.4046133102806
  0
ARC
  8
_0-0_
  6
CONTINUOUS
 62
    7
 10
200.55291077674607
 20
104.92289219657128
 40
6
 50
64.595386689719376
 51
85.404613310280637
  0
ARC
  8
_0-0_
  6
CONTINUOUS
 62
    7
 10
200.55291077674607
 20
104.92289219657128
 40
6
 50
34.59538668971944
 51
55.404613310280623
  0
ARC
  8
_0-0_
  6
CONTINUOUS
 62
    7
 10
200.55291077674607
 20
104.92289219657128
 40
6
 50
4.5953866897193504
 51
25.404613310280655
  0
ARC
  8
_0-0_
  6
CONTINUOUS
 62
    7
 10
200.55291077674607
 20
104.92289219657128
 40
6
 50
334.59538668971936
 51
355.40461331028063
  0
ARC
  8
_0-0_
  6
CONTINUOUS
 62
    7
 10
200.55291077674607
 20
104.92289219657128
 40
6
 50
304.5953866897193
 51
325.40461331028058
  0
ARC
  8
_0-0_
  6
CONTINUOUS
 62
    7
 10
200.55291077674607
 20
104.92289219657128
 40
6
 50
274.59538668971936
 51
295.40461331028063
  0
ARC
  8
_0-0_
  6
CONTINUOUS
 62
    7
 10
200.55291077674607
 20
104.92289219657128
 40
6
 50
214.59538668971941
 51
237.1349125248669
  0
ARC
  8
_0-0_
  6
CONTINUOUS
 62
    7
 10
200.55291077674607
 20
104.92289219657128
 40
6
 50
242.86508747513298
 51
265.40461331028063
  0
ARC
  8
_0-0_
  6
CONTINUOUS
 62
    7
 10
222.33019831108799
 20
105.93374219107029
 40
0.3555276618210784
 50
318.90160027437116
 51
81.098399725629278
  0
ARC
  8
_0-0_
  6
CONTINUOUS
 62
    7
 10
221.03067460765663
 20
107.48245423329595
 40
0.3555276618210784
 50
358.90160027437116
 51
69.999999999999943
  0
LINE
  8
_0-0_
  6
CONTINUOUS
 62
    7
 10
217.73945346305143
 20
106.44456355964817
 11
216.72060961017479
 21
106.28498771572348
  0
LINE
  8
_0-0_
  6
CONTINUOUS
 62
    7
 10
221.38613694052938
 20
107.4756389395671
 11
221.36636809044071
 21
106.44456355964817
  0
LINE
  8
_0-0_
  6
CONTINUOUS
 62
    7
 10
221.36636809044071
 20
106.44456355964817
 11
222.38521194331735
 21
106.28498771572348
  0
LINE
  8
_0-0_
  6
CONTINUOUS
 62
    7
 10
222.59811746955799
 20
105.70003458990019
 11
221.920211172936
 21
104.92289219657128
  0
ARC
  8
_0-0_
  6
CONTINUOUS
 62
    7
 10
218.07514694583551
 20
107.48245423329595
 40
0.3555276618210784
 50
58.901600274370707
 51
181.09839972562883
  0
LINE
  8
_0-0_
  6
CONTINUOUS
 62
    7
 10
219.14183337695749
 20
107.25422798044796
 11
218.25878032977536
 21
107.78688599678784
  0
LINE
  8
_0-0_
  6
CONTINUOUS
 62
    7
 10
217.71968461296276
 20
107.4756389395671
 11
217.73945346305143
 21
106.44456355964817
  0
ARC
  8
_0-0_
  6
CONTINUOUS
 62
    7
 10
216.77562324240415
 20
105.93374219107029
 40
0.3555276618210783
 50
98.901600274370679
 51
221.09839972562878
  0
LINE
  8
_0-0_
  6
CONTINUOUS
 62
    7
 10
216.50770408393415
 20
105.70003458990019
 11
217.18561038055614
 21
104.92289219657128
  0
ARC
  8
_0-0_
  6
CONTINUOUS
 62
    7
 10
221.03067460765663
 20
102.36333015984661
 40
0.3555276618210784
 50
238.9016002743707
 51
1.098399725628806
  0
LINE
  8
_0-0_
  6
CONTINUOUS
 62
    7
 10
219.96398817653465
 20
102.59155641269458
 11
220.84704122371678
 21
102.05889839635472
  0
LINE
  8
_0-0_
  6
CONTINUOUS
 62
    7
 10
221.38613694052938
 20
102.37014545357544
 11
221.36636809044071
 21
103.40122083349439
  0
ARC
  8
_0-0_
  6
CONTINUOUS
 62
    7
 10
222.33019831108799
 20
103.91204220207227
 40
0.3555276618210784
 50
278.9016002743707
 51
41.098399725628809
  0
LINE
  8
_0-0_
  6
CONTINUOUS
 62
    7
 10
221.36636809044071
 20
103.40122083349439
 11
222.38521194331735
 21
103.56079667741907
  0
LINE
  8
_0-0_
  6
CONTINUOUS
 62
    7
 10
222.59811746955799
 20
104.14574980324236
 11
221.920211172936
 21
104.92289219657128
  0
LINE
  8
_0-0_
  6
CONTINUOUS
 62
    7
 10
217.71968461296276
 20
102.37014545357544
 11
217.73945346305143
 21
103.40122083349439
  0
ARC
  8
_0-0_
  6
CONTINUOUS
 62
    7
 10
216.77562324240415
 20
103.91204220207227
 40
0.3555276618210783
 50
138.90160027437121
 51
261.09839972562929
  0
LINE
  8
_0-0_
  6
CONTINUOUS
 62
    7
 10
217.73945346305143
 20
103.40122083349439
 11
216.72060961017479
 21
103.56079667741907
  0
LINE
  8
_0-0_
  6
CONTINUOUS
 62
    7
 10
216.50770408393415
 20
104.14574980324236
 11
217.18561038055614
 21
104.92289219657128
  0
LINE
  8
_0-0_
  6
CONTINUOUS
 62
    7
 10
219.96398817653465
 20
102.59155641269458
 11
219.65291077674606
 21
102.20605599715887
  0
LINE
  8
_0-0_
  6
CONTINUOUS
 62
    7
 10
219.65291077674606
 20
107.88757694801461
 11
219.78945203806495
 21
108.05678471756641
  0
LINE
  8
_0-0_
  6
CONTINUOUS
 62
    7
 10
217.95354932398325
 20
102.02924343954805
 11
218.91809116237433
 21
101.67817892066929
  0
LINE
  8
_0-0_
  6
CONTINUOUS
 62
    7
 10
220.18773039111781
 20
108.16760547247326
 11
221.15227222950889
 21
107.81654095359449
  0
ARC
  8
_0-0_
  6
CONTINUOUS
 62
    7
 10
219.03968878422662
 20
102.01226564096782
 40
0.3555276618210784
 50
249.99999999999997
 51
321.09839972562934
  0
ARC
  8
_0-0_
  6
CONTINUOUS
 62
    7
 10
218.07514694583551
 20
102.36333015984661
 40
0.3555276618210784
 50
178.90160027437119
 51
249.99999999999991
  0
ARC
  8
_0-0_
  6
CONTINUOUS
 62
    7
 10
220.06613276926552
 20
107.83351875217472
 40
0.3555276618210784
 50
69.999999999999943
 51
141.09839972562932
  0
LINE
  8
_0-0_
  6
CONTINUOUS
 62
    7
 10
219.65291077674606
 20
102.20605599715887
 11
219.31636951542719
 21
101.78899967557615
  0
LINE
  8
_0-0_
  6
CONTINUOUS
 62
    7
 10
219.14183337695749
 20
107.25422798044796
 11
219.65291077674606
 21
107.88757694801461
  0
ARC
  8
_0-0_
  6
CONTINUOUS
 62
    7
 10
212.92188048361083
 20
97.437610822332715
 40
2
 50
354.619977328657
 51
48.463040967184447
  0
ARC
  8
_0-0_
  6
CONTINUOUS
 62
    7
 10
215.1121888606753
 20
97.231336215652078
 40
0.2
 50
174.61997732865643
 51
305.38002267134186
  0
ARC
  8
_0-0_
  6
CONTINUOUS
 62
    7
 10
216.38598209874859
 20
95.437610822332715
 40
2
 50
71.536959032815673
 51
125.38002267134351
  0
ARC
  8
_0-0_
  6
CONTINUOUS
 62
    7
 10
219.55291077674607
 20
104.92289219657128
 40
8
 50
251.53695903281547
 51
228.46304096718452
  0
ENDSEC
  0
EOF
