  0
SECTION
  2
HEADER
  9
$ACADVER
  1
AC1009
  9
$INSBASE
 10
0
 20
0
 30
0
  9
$EXTMIN
 10
0
 20
0
  9
$EXTMAX
 10
297
 20
210
  9
$LIMMIN
 10
0
 20
0
  9
$LIMMAX
 10
297
 20
210
  9
$LTSCALE
 40
1
  0
ENDSEC
  0
SECTION
  2
TABLES
  0
TABLE
  2
LTYPE
 70
     9
  0
LTYPE
  2
CONTINUOUS
 70
    64
  3
実線
 72
    65
 73
     0
 40
0.0
  0
LTYPE
  2
DASHED1
 70
    64
  3
--  --  --  --  --  --  --  --  
 72
    65
 73
     2
 40
2.5
 49
1.25
 49
-1.25
  0
LTYPE
  2
DASHED2
 70
    64
  3
----    ----    ----    ----    
 72
    65
 73
     2
 40
5.0
 49
2.5
 49
-2.5
  0
LTYPE
  2
DASHED3
 70
    64
  3
------  ------  ------  ------  
 72
    65
 73
     2
 40
5.0
 49
3.75
 49
-1.25
  0
LTYPE
  2
CENTER1
 70
    64
  3
----- - ----- - ----- - ----- - 
 72
    65
 73
     4
 40
10.0
 49
6.25
 49
-1.25
 49
1.25
 49
-1.25
  0
LTYPE
  2
CENTER2
 70
    64
  3
----------  --  ----------  --  
 72
    65
 73
     4
 40
20.0
 49
12.5
 49
-2.5
 49
2.5
 49
-2.5
  0
LTYPE
  2
PHANTOM1
 70
    64
  3
--- - - --- - - --- - - --- - - 
 72
    65
 73
     6
 40
10.0
 49
3.25
 49
-1.25
 49
1.25
 49
-1.25
 49
1.25
 49
-1.25
  0
LTYPE
  2
PHANTOM2
 70
    64
  3
--------  -  -  --------  -  -  
 72
    65
 73
     6
 40
20.0
 49
10.0
 49
-2.5
 49
1.25
 49
-2.5
 49
1.25
 49
-2.5
  0
LTYPE
  2
DOT
 70
    64
  3
-   -   -   -   -   -   -   -   
 72
    65
 73
     2
 40
2.5
 49
0.625
 49
-1.875
  0
LTYPE
  2
DUMMY
 70
    64
  3
ダミー
 72
    65
 73
     0
 40
0.0
  0
LTYPE
  2
RAND1
 70
    64
  3
ランダム線1
 72
    65
 73
     4
 40
10.0
 49
1.0
 49
-2.0
 49
3.0
 49
-4.0
  0
LTYPE
  2
RAND2
 70
    64
  3
ランダム線2
 72
    65
 73
     4
 40
14.0
 49
2.0
 49
-3.0
 49
4.0
 49
-5.0
  0
LTYPE
  2
RAND3
 70
    64
  3
ランダム線3
 72
    65
 73
     4
 40
18.0
 49
3.0
 49
-4.0
 49
5.0
 49
-6.0
  0
LTYPE
  2
RAND4
 70
    64
  3
ランダム線4
 72
    65
 73
     4
 40
22.0
 49
4.0
 49
-5.0
 49
6.0
 49
-7.0
  0
LTYPE
  2
RAND5
 70
    64
  3
ランダム線5
 72
    65
 73
     4
 40
26.0
 49
5.0
 49
-6.0
 49
7.0
 49
-8.0
  0
LTYPE
  2
LONG1
 70
    64
  3
----------  --  ----------  --  
 72
    65
 73
     4
 40
40.0
 49
32.5
 49
-2.5
 49
2.5
 49
-2.5
  0
LTYPE
  2
LONG2
 70
    64
  3
--------  -  -  --------  -  -  
 72
    65
 73
     6
 40
40.0
 49
30.0
 49
-2.5
 49
1.25
 49
-2.5
 49
1.25
 49
-2.5
  0
LTYPE
  2
LONG3
 70
    64
  3
+++++++++++++++..+++++++++++++++
 72
    65
 73
     2
 40
40.0
 49
37.5
 49
-2.5
  0
LTYPE
  2
LONG4
 70
    64
  3
+++++++++++++++..+++++++++++++++
 72
    65
 73
     2
 40
80.0
 49
75.0
 49
-5.0
  0
LTYPE
  2
LONG5
 70
    64
  3
----------  --  ----------  --  
 72
    65
 73
     4
 40
60.0
 49
37.5
 49
-7.5
 49
7.5
 49
-7.5
  0
LTYPE
  2
dashed
 70
   64
  3
-------   -------------   ------
 72
   65
 73
    2
 40
7.5
 49
6
 49
-1.5
  0
LTYPE
  2
dashed_spaced
 70
   64
  3
----        --------        ----
 72
   65
 73
    2
 40
12
 49
6
 49
-6
  0
LTYPE
  2
long_dashed_dotted
 70
   64
  3
------------- --- --------------
 72
   65
 73
    4
 40
15.25
 49
12
 49
-1.5
 49
0.25
 49
-1.5
  0
LTYPE
  2
long_dashed_double-dotted
 70
   64
  3
----------- --- --- ------------
 72
   65
 73
    6
 40
17
 49
12
 49
-1.5
 49
0.25
 49
-1.5
 49
0.25
 49
-1.5
  0
LTYPE
  2
long_dashed_triplicate-dotted
 70
   64
  3
--------- --- --- --- ----------
 72
   65
 73
    8
 40
18.75
 49
12
 49
-1.5
 49
0.25
 49
-1.5
 49
0.25
 49
-1.5
 49
0.25
 49
-1.5
  0
LTYPE
  2
dotted
 70
   64
  3
   -       -       -       -    
 72
   65
 73
    2
 40
1.75
 49
0.25
 49
-1.5
  0
LTYPE
  2
chain
 70
   64
  3
-------------- -- --------------
 72
   65
 73
    4
 40
18.5
 49
12
 49
-1.5
 49
3.5
 49
-1.5
  0
LTYPE
  2
chain_double_dash
 70
   64
  3
------------ -- -- -------------
 72
   65
 73
    6
 40
23.5
 49
12
 49
-1.5
 49
3.5
 49
-1.5
 49
3.5
 49
-1.5
  0
LTYPE
  2
dashed_dotted
 70
   64
  3
-----------     -     ----------
 72
   65
 73
    4
 40
9.25
 49
6
 49
-1.5
 49
0.25
 49
-1.5
  0
LTYPE
  2
double-dashed_dotted
 70
   64
  3
------   -----------   -   -----
 72
   65
 73
    6
 40
16.75
 49
6
 49
-1.5
 49
6
 49
-1.5
 49
0.25
 49
-1.5
  0
LTYPE
  2
dashed_double-dotted
 70
   64
  3
---------    -    -    ---------
 72
   65
 73
    6
 40
11
 49
6
 49
-1.5
 49
0.25
 49
-1.5
 49
0.25
 49
-1.5
  0
LTYPE
  2
double-dashed_double-dotted
 70
   64
  3
-----   ---------   -   -   ----
 72
   65
 73
    8
 40
18.5
 49
6
 49
-1.5
 49
6
 49
-1.5
 49
0.25
 49
-1.5
 49
0.25
 49
-1.5
  0
LTYPE
  2
dashed_triplicate-dotted
 70
   64
  3
-------    -    -    -    ------
 72
   65
 73
    8
 40
12.75
 49
6
 49
-1.5
 49
0.25
 49
-1.5
 49
0.25
 49
-1.5
 49
0.25
 49
-1.5
  0
LTYPE
  2
double-dashed_triplicate-dotted
 70
   64
  3
-----  ---------  -  -  -  -----
 72
   65
 73
   10
 40
20.25
 49
6
 49
-1.5
 49
6
 49
-1.5
 49
0.25
 49
-1.5
 49
0.25
 49
-1.5
 49
0.25
 49
-1.5
  0
LTYPE
  2
undefined
 70
   64
  3
--------------------------------
 72
   65
 73
    0
 40
0
  0
LTYPE
  2
_
 70
   64
  3
                                
 72
   65
 73
    0
 40
0
  0
LTYPE
  2
__18
 70
   64
  3
                                
 72
   65
 73
    0
 40
0
  0
LTYPE
  2
__19
 70
   64
  3
                                
 72
   65
 73
    0
 40
0
  0
LTYPE
  2
__20
 70
   64
  3
                                
 72
   65
 73
    0
 40
0
  0
LTYPE
  2
__21
 70
   64
  3
                                
 72
   65
 73
    0
 40
0
  0
LTYPE
  2
__22
 70
   64
  3
                                
 72
   65
 73
    0
 40
0
  0
LTYPE
  2
__23
 70
   64
  3
                                
 72
   65
 73
    0
 40
0
  0
LTYPE
  2
__24
 70
   64
  3
                                
 72
   65
 73
    0
 40
0
  0
LTYPE
  2
__25
 70
   64
  3
                                
 72
   65
 73
    0
 40
0
  0
LTYPE
  2
__26
 70
   64
  3
                                
 72
   65
 73
    0
 40
0
  0
LTYPE
  2
__27
 70
   64
  3
                                
 72
   65
 73
    0
 40
0
  0
LTYPE
  2
__28
 70
   64
  3
                                
 72
   65
 73
    0
 40
0
  0
LTYPE
  2
__29
 70
   64
  3
                                
 72
   65
 73
    0
 40
0
  0
LTYPE
  2
__30
 70
   64
  3
                                
 72
   65
 73
    0
 40
0
  0
LTYPE
  2
__31
 70
   64
  3
                                
 72
   65
 73
    0
 40
0
  0
LTYPE
  2
__32
 70
   64
  3
                                
 72
   65
 73
    0
 40
0
  0
ENDTAB
  0
TABLE
  2
STYLE
  5
3
100
AcDbSymbolTable
 70
     1
  0
STYLE
  5
10
100
AcDbSymbolTableRecord
100
AcDbTextStyleTableRecord
  2
STANDARD
 70
     0
 40
0.0
 41
1.0
 50
0.0
 71
     0
 42
0.2
  3
txt
  4
bigfont.shx
  0
STYLE
  5
26
100
AcDbSymbolTableRecord
100
AcDbTextStyleTableRecord
  2
TATEGAKI
 70
    68
 40
0.0
 41
1.0
 50
0.0
 71
     0
 42
1.0
  3
txt
  4
bigfont.shx
  0
ENDTAB
  0
TABLE
  2
LAYER
 70
    2
  0
LAYER
  2
_0-0_
 70
   64
 62
    7
  6
CONTINUOUS
  0
LAYER
  2
ADD_LINE
 70
   64
 62
    7
  6
CONTINUOUS
  0
ENDTAB
  0
ENDSEC
  0
SECTION
  2
BLOCKS
  0
ENDSEC
  0
SECTION
  2
ENTITIES
  0
LINE
  8
_0-0_
  6
CONTINUOUS
 62
    7
 10
255.10615869197937
 20
42.102367726065609
 11
255.10615869197937
 21
32.002367726065586
  0
LINE
  8
_0-0_
  6
CONTINUOUS
 62
    7
 10
121.10615869197937
 20
32.002367726065586
 11
142.10615869197937
 21
32.002367726065586
  0
LINE
  8
_0-0_
  6
CONTINUOUS
 62
    7
 10
162.10615869197937
 20
32.002367726065586
 11
183.10615869197937
 21
32.002367726065586
  0
LINE
  8
_0-0_
  6
CONTINUOUS
 62
    7
 10
156.18091683280784
 20
136.51974844167484
 11
153.28091683280786
 21
136.51974844167484
  0
CIRCLE
  8
_0-0_
  6
CONTINUOUS
 62
    7
 10
171.28091683280786
 20
164.27634362902694
 40
5.5
  0
LINE
  8
_0-0_
  6
CONTINUOUS
 62
    7
 10
185.38091683280783
 20
175.8971714554051
 11
185.38091683280783
 21
174.40573080196668
  0
LINE
  8
_0-0_
  6
CONTINUOUS
 62
    7
 10
156.18091683280784
 20
196.51974844167484
 11
153.28091683280786
 21
196.51974844167484
  0
LINE
  8
_0-0_
  6
CONTINUOUS
 62
    7
 10
156.18091683280784
 20
176.51974844167484
 11
153.28091683280786
 21
176.51974844167484
  0
LINE
  8
_0-0_
  6
CONTINUOUS
 62
    7
 10
156.18091683280784
 20
156.51974844167484
 11
153.28091683280786
 21
156.51974844167484
  0
LINE
  8
_0-0_
  6
CONTINUOUS
 62
    7
 10
176.28091683280786
 20
223.01974844167484
 11
166.28091683280786
 21
223.01974844167484
  0
LINE
  8
_0-0_
  6
CONTINUOUS
 62
    7
 10
188.2809168328078
 20
210.01974844167484
 11
188.2809168328078
 21
190.01974844167484
  0
LINE
  8
_0-0_
  6
CONTINUOUS
 62
    7
 10
191.11432626824148
 20
133.18050414967706
 11
193.89778828744278
 21
152.98586552450848
  0
LINE
  8
_0-0_
  6
CONTINUOUS
 62
    7
 10
166.28091683280786
 20
110.01974844167484
 11
176.28091683280786
 21
110.01974844167484
  0
LINE
  8
_0-0_
  6
CONTINUOUS
 62
    7
 10
156.18091683280784
 20
176.51974844167484
 11
156.18091683280784
 21
156.51974844167484
  0
LINE
  8
_0-0_
  6
CONTINUOUS
 62
    7
 10
156.18091683280784
 20
136.51974844167484
 11
156.18091683280784
 21
112.91974844167487
  0
LINE
  8
_0-0_
  6
CONTINUOUS
 62
    7
 10
176.28091683280786
 20
112.91974844167487
 11
185.33836278903362
 21
112.91974844167487
  0
LINE
  8
_0-0_
  6
CONTINUOUS
 62
    7
 10
188.24254886889088
 20
133.58410614246122
 11
185.33836278903362
 21
112.91974844167487
  0
LINE
  8
_0-0_
  6
CONTINUOUS
 62
    7
 10
193.86927436446717
 20
173.62033836985188
 11
191.02601088809223
 21
153.3894675172927
  0
LINE
  8
_0-0_
  6
CONTINUOUS
 62
    7
 10
193.86927436446717
 20
173.62033836985188
 11
188.28091683280775
 21
174.40573080196668
  0
LINE
  8
_0-0_
  6
CONTINUOUS
 62
    7
 10
185.38091683280783
 20
220.1197484416748
 11
185.38091683280783
 21
210.01974844167484
  0
LINE
  8
_0-0_
  6
CONTINUOUS
 62
    7
 10
185.38091683280783
 20
190.01974844167484
 11
185.38091683280783
 21
175.8971714554051
  0
LINE
  8
_0-0_
  6
CONTINUOUS
 62
    7
 10
185.38091683280783
 20
220.1197484416748
 11
176.28091683280786
 21
220.1197484416748
  0
LINE
  8
_0-0_
  6
CONTINUOUS
 62
    7
 10
176.28091683280786
 20
223.01974844167484
 11
176.48091683280785
 21
223.01974844167484
  0
LINE
  8
_0-0_
  6
CONTINUOUS
 62
    7
 10
166.28091683280786
 20
223.01974844167484
 11
166.08091683280787
 21
223.01974844167484
  0
LINE
  8
_0-0_
  6
CONTINUOUS
 62
    7
 10
188.2809168328078
 20
210.01974844167484
 11
188.2809168328078
 21
210.21974844167482
  0
LINE
  8
_0-0_
  6
CONTINUOUS
 62
    7
 10
188.2809168328078
 20
190.01974844167484
 11
188.2809168328078
 21
189.81974844167485
  0
LINE
  8
_0-0_
  6
CONTINUOUS
 62
    7
 10
176.28091683280786
 20
110.01974844167484
 11
176.48091683280785
 21
110.01974844167484
  0
LINE
  8
_0-0_
  6
CONTINUOUS
 62
    7
 10
166.28091683280786
 20
110.01974844167484
 11
166.08091683280787
 21
110.01974844167484
  0
LINE
  8
_0-0_
  6
CONTINUOUS
 62
    7
 10
193.89778828744278
 20
152.98586552450848
 11
193.92562290763476
 21
153.18391913825678
  0
LINE
  8
_0-0_
  6
CONTINUOUS
 62
    7
 10
191.11432626824148
 20
133.18050414967706
 11
191.08649164804945
 21
132.98245053592876
  0
LINE
  8
_0-0_
  6
CONTINUOUS
 62
    7
 10
193.92562290763476
 20
153.18391913825678
 11
191.02601088809223
 21
153.3894675172927
  0
LINE
  8
_0-0_
  6
CONTINUOUS
 62
    7
 10
191.08649164804945
 20
132.98245053592876
 11
188.24254886889094
 21
133.58410614246122
  0
LINE
  8
_0-0_
  6
CONTINUOUS
 62
    7
 10
176.48091683280785
 20
110.01974844167484
 11
176.28091683280786
 21
112.91974844167487
  0
LINE
  8
_0-0_
  6
CONTINUOUS
 62
    7
 10
166.08091683280787
 20
110.01974844167484
 11
166.28091683280786
 21
112.91974844167487
  0
LINE
  8
_0-0_
  6
CONTINUOUS
 62
    7
 10
176.48091683280785
 20
223.01974844167484
 11
176.28091683280786
 21
220.1197484416748
  0
LINE
  8
_0-0_
  6
CONTINUOUS
 62
    7
 10
166.28091683280786
 20
220.1197484416748
 11
166.08091683280787
 21
223.01974844167484
  0
LINE
  8
_0-0_
  6
CONTINUOUS
 62
    7
 10
156.18091683280784
 20
220.1197484416748
 11
156.18091683280784
 21
196.51974844167484
  0
LINE
  8
_0-0_
  6
CONTINUOUS
 62
    7
 10
166.28091683280786
 20
220.1197484416748
 11
161.98091683280785
 21
220.1197484416748
  0
LINE
  8
_0-0_
  6
CONTINUOUS
 62
    7
 10
159.18091683280784
 20
220.1197484416748
 11
156.18091683280784
 21
220.1197484416748
  0
LINE
  8
_0-0_
  6
CONTINUOUS
 62
    7
 10
161.98091683280785
 20
220.1197484416748
 11
161.98091683280785
 21
213.01974844167484
  0
LINE
  8
_0-0_
  6
CONTINUOUS
 62
    7
 10
159.18091683280784
 20
220.1197484416748
 11
159.18091683280784
 21
213.01974844167484
  0
LINE
  8
_0-0_
  6
CONTINUOUS
 62
    7
 10
161.98091683280785
 20
213.01974844167484
 11
159.18091683280784
 21
213.01974844167484
  0
LINE
  8
_0-0_
  6
CONTINUOUS
 62
    7
 10
159.18091683280784
 20
112.91974844167487
 11
159.18091683280784
 21
120.01974844167484
  0
LINE
  8
_0-0_
  6
CONTINUOUS
 62
    7
 10
161.98091683280785
 20
112.91974844167487
 11
161.98091683280785
 21
120.01974844167484
  0
LINE
  8
_0-0_
  6
CONTINUOUS
 62
    7
 10
159.18091683280784
 20
120.01974844167484
 11
161.98091683280785
 21
120.01974844167484
  0
LINE
  8
_0-0_
  6
CONTINUOUS
 62
    7
 10
156.18091683280784
 20
112.91974844167487
 11
159.18091683280784
 21
112.91974844167487
  0
LINE
  8
_0-0_
  6
CONTINUOUS
 62
    7
 10
161.98091683280785
 20
112.91974844167487
 11
166.28091683280786
 21
112.91974844167487
  0
LINE
  8
_0-0_
  6
CONTINUOUS
 62
    7
 10
188.2809168328078
 20
210.21974844167482
 11
185.38091683280783
 21
210.01974844167484
  0
LINE
  8
_0-0_
  6
CONTINUOUS
 62
    7
 10
188.2809168328078
 20
189.81974844167485
 11
185.38091683280783
 21
190.01974844167484
  0
LINE
  8
_0-0_
  6
CONTINUOUS
 62
    7
 10
188.28091683280786
 20
174.40573080196668
 11
185.38091683280783
 21
174.40573080196668
  0
LINE
  8
_0-0_
  6
CONTINUOUS
 62
    7
 10
153.28091683280786
 20
196.51974844167484
 11
153.28091683280786
 21
176.51974844167484
  0
LINE
  8
_0-0_
  6
CONTINUOUS
 62
    7
 10
153.28091683280786
 20
156.51974844167484
 11
153.28091683280786
 21
136.51974844167484
  0
LINE
  8
_0-0_
  6
CONTINUOUS
 62
    7
 10
217.45636099512268
 20
223.34453184432306
 11
217.45636099512268
 21
220.44453184432302
  0
LINE
  8
_0-0_
  6
CONTINUOUS
 62
    7
 10
237.45636099512268
 20
223.34453184432306
 11
237.45636099512268
 21
220.44453184432302
  0
LINE
  8
_0-0_
  6
CONTINUOUS
 62
    7
 10
237.45636099512268
 20
113.24453184432309
 11
237.45636099512268
 21
110.34453184432306
  0
LINE
  8
_0-0_
  6
CONTINUOUS
 62
    7
 10
217.45636099512268
 20
113.24453184432309
 11
217.45636099512268
 21
110.34453184432306
  0
LINE
  8
_0-0_
  6
CONTINUOUS
 62
    7
 10
196.45636099512268
 20
223.34453184432306
 11
217.45636099512268
 21
223.34453184432306
  0
LINE
  8
_0-0_
  6
CONTINUOUS
 62
    7
 10
258.45636099512268
 20
223.34453184432306
 11
237.45636099512268
 21
223.34453184432306
  0
LINE
  8
_0-0_
  6
CONTINUOUS
 62
    7
 10
217.45636099512268
 20
220.44453184432302
 11
237.45636099512268
 21
220.44453184432302
  0
LINE
  8
_0-0_
  6
CONTINUOUS
 62
    7
 10
196.45636099512268
 20
223.34453184432306
 11
196.45636099512268
 21
196.84453184432306
  0
LINE
  8
_0-0_
  6
CONTINUOUS
 62
    7
 10
196.45636099512268
 20
176.84453184432306
 11
196.45636099512268
 21
166.84453184432306
  0
LINE
  8
_0-0_
  6
CONTINUOUS
 62
    7
 10
196.45636099512268
 20
110.34453184432306
 11
196.45636099512268
 21
136.84453184432306
  0
LINE
  8
_0-0_
  6
CONTINUOUS
 62
    7
 10
196.45636099512268
 20
156.84453184432306
 11
196.45636099512268
 21
166.84453184432306
  0
LINE
  8
_0-0_
  6
CONTINUOUS
 62
    7
 10
199.35636099512266
 20
156.84453184432306
 11
199.35636099512266
 21
136.84453184432306
  0
LINE
  8
_0-0_
  6
CONTINUOUS
 62
    7
 10
199.35636099512266
 20
196.84453184432306
 11
199.35636099512266
 21
176.84453184432306
  0
LINE
  8
_0-0_
  6
CONTINUOUS
 62
    7
 10
196.45636099512268
 20
196.84453184432306
 11
199.35636099512266
 21
196.84453184432306
  0
LINE
  8
_0-0_
  6
CONTINUOUS
 62
    7
 10
255.5563609951227
 20
196.84453184432306
 11
258.45636099512268
 21
196.84453184432306
  0
LINE
  8
_0-0_
  6
CONTINUOUS
 62
    7
 10
258.45636099512268
 20
223.34453184432306
 11
258.45636099512268
 21
196.84453184432306
  0
LINE
  8
_0-0_
  6
CONTINUOUS
 62
    7
 10
258.45636099512268
 20
176.84453184432306
 11
258.45636099512268
 21
166.84453184432306
  0
LINE
  8
_0-0_
  6
CONTINUOUS
 62
    7
 10
255.5563609951227
 20
196.84453184432306
 11
255.5563609951227
 21
176.84453184432306
  0
LINE
  8
_0-0_
  6
CONTINUOUS
 62
    7
 10
196.45636099512268
 20
176.84453184432306
 11
199.35636099512266
 21
176.84453184432306
  0
LINE
  8
_0-0_
  6
CONTINUOUS
 62
    7
 10
255.5563609951227
 20
176.84453184432306
 11
258.45636099512268
 21
176.84453184432306
  0
LINE
  8
_0-0_
  6
CONTINUOUS
 62
    7
 10
196.45636099512268
 20
156.84453184432306
 11
199.35636099512266
 21
156.84453184432306
  0
LINE
  8
_0-0_
  6
CONTINUOUS
 62
    7
 10
255.5563609951227
 20
156.84453184432306
 11
258.45636099512268
 21
156.84453184432306
  0
LINE
  8
_0-0_
  6
CONTINUOUS
 62
    7
 10
196.45636099512268
 20
136.84453184432306
 11
199.35636099512266
 21
136.84453184432306
  0
LINE
  8
_0-0_
  6
CONTINUOUS
 62
    7
 10
255.5563609951227
 20
136.84453184432306
 11
258.45636099512268
 21
136.84453184432306
  0
LINE
  8
_0-0_
  6
CONTINUOUS
 62
    7
 10
255.5563609951227
 20
156.84453184432306
 11
255.5563609951227
 21
136.84453184432306
  0
LINE
  8
_0-0_
  6
CONTINUOUS
 62
    7
 10
217.45636099512268
 20
113.24453184432309
 11
237.45636099512268
 21
113.24453184432309
  0
LINE
  8
_0-0_
  6
CONTINUOUS
 62
    7
 10
258.45636099512268
 20
110.34453184432306
 11
237.45636099512268
 21
110.34453184432306
  0
LINE
  8
_0-0_
  6
CONTINUOUS
 62
    7
 10
196.45636099512268
 20
110.34453184432306
 11
217.45636099512268
 21
110.34453184432306
  0
LINE
  8
_0-0_
  6
CONTINUOUS
 62
    7
 10
258.45636099512268
 20
110.34453184432306
 11
258.45636099512268
 21
136.84453184432306
  0
LINE
  8
_0-0_
  6
CONTINUOUS
 62
    7
 10
258.45636099512268
 20
156.84453184432306
 11
258.45636099512268
 21
166.84453184432306
  0
CIRCLE
  8
_0-0_
  6
CONTINUOUS
 62
    7
 10
201.45636099512268
 20
115.34453184432306
 40
1.5
  0
CIRCLE
  8
_0-0_
  6
CONTINUOUS
 62
    7
 10
201.45636099512268
 20
218.34453184432306
 40
1.5
  0
CIRCLE
  8
_0-0_
  6
CONTINUOUS
 62
    7
 10
253.45636099512268
 20
218.34453184432306
 40
1.5
  0
CIRCLE
  8
_0-0_
  6
CONTINUOUS
 62
    7
 10
253.45636099512268
 20
115.34453184432306
 40
1.5
  0
LINE
  8
_0-0_
  6
CONTINUOUS
 62
    7
 10
170.85710638493492
 20
69.122470017135527
 11
170.85710638493492
 21
66.222470017135549
  0
CIRCLE
  8
_0-0_
  6
CONTINUOUS
 62
    7
 10
198.61370157228703
 20
84.222470017135549
 40
5.5
  0
LINE
  8
_0-0_
  6
CONTINUOUS
 62
    7
 10
210.23452939866519
 20
98.322470017135515
 11
208.74308874522677
 21
98.322470017135515
  0
LINE
  8
_0-0_
  6
CONTINUOUS
 62
    7
 10
230.85710638493492
 20
69.122470017135527
 11
230.85710638493492
 21
66.222470017135549
  0
LINE
  8
_0-0_
  6
CONTINUOUS
 62
    7
 10
210.85710638493492
 20
69.122470017135527
 11
210.85710638493492
 21
66.222470017135549
  0
LINE
  8
_0-0_
  6
CONTINUOUS
 62
    7
 10
190.85710638493492
 20
69.122470017135527
 11
190.85710638493492
 21
66.222470017135549
  0
LINE
  8
_0-0_
  6
CONTINUOUS
 62
    7
 10
257.35710638493492
 20
89.222470017135549
 11
257.35710638493492
 21
79.222470017135549
  0
LINE
  8
_0-0_
  6
CONTINUOUS
 62
    7
 10
244.35710638493492
 20
101.22247001713549
 11
224.35710638493492
 21
101.22247001713549
  0
LINE
  8
_0-0_
  6
CONTINUOUS
 62
    7
 10
167.51786209293715
 20
104.05587945256917
 11
187.32322346776857
 21
106.83934147177047
  0
LINE
  8
_0-0_
  6
CONTINUOUS
 62
    7
 10
144.35710638493492
 20
79.222470017135549
 11
144.35710638493492
 21
89.222470017135549
  0
LINE
  8
_0-0_
  6
CONTINUOUS
 62
    7
 10
210.85710638493492
 20
69.122470017135527
 11
190.85710638493492
 21
69.122470017135527
  0
LINE
  8
_0-0_
  6
CONTINUOUS
 62
    7
 10
170.85710638493492
 20
69.122470017135527
 11
147.25710638493496
 21
69.122470017135527
  0
LINE
  8
_0-0_
  6
CONTINUOUS
 62
    7
 10
147.25710638493496
 20
89.222470017135549
 11
147.25710638493496
 21
98.279915973361312
  0
LINE
  8
_0-0_
  6
CONTINUOUS
 62
    7
 10
167.92146408572131
 20
101.18410205321857
 11
147.25710638493496
 21
98.279915973361312
  0
LINE
  8
_0-0_
  6
CONTINUOUS
 62
    7
 10
207.95769631311197
 20
106.81082754879486
 11
187.72682546055279
 21
103.96756407241992
  0
LINE
  8
_0-0_
  6
CONTINUOUS
 62
    7
 10
207.95769631311197
 20
106.81082754879486
 11
208.74308874522677
 21
101.22247001713544
  0
LINE
  8
_0-0_
  6
CONTINUOUS
 62
    7
 10
254.45710638493489
 20
98.322470017135515
 11
244.35710638493492
 21
98.322470017135515
  0
LINE
  8
_0-0_
  6
CONTINUOUS
 62
    7
 10
224.35710638493492
 20
98.322470017135515
 11
210.23452939866519
 21
98.322470017135515
  0
LINE
  8
_0-0_
  6
CONTINUOUS
 62
    7
 10
254.45710638493489
 20
98.322470017135515
 11
254.45710638493489
 21
89.222470017135549
  0
LINE
  8
_0-0_
  6
CONTINUOUS
 62
    7
 10
257.35710638493492
 20
89.222470017135549
 11
257.35710638493492
 21
89.422470017135538
  0
LINE
  8
_0-0_
  6
CONTINUOUS
 62
    7
 10
257.35710638493492
 20
79.222470017135549
 11
257.35710638493492
 21
79.022470017135561
  0
LINE
  8
_0-0_
  6
CONTINUOUS
 62
    7
 10
244.35710638493492
 20
101.22247001713549
 11
244.55710638493491
 21
101.22247001713549
  0
LINE
  8
_0-0_
  6
CONTINUOUS
 62
    7
 10
224.35710638493492
 20
101.22247001713549
 11
224.15710638493493
 21
101.22247001713549
  0
LINE
  8
_0-0_
  6
CONTINUOUS
 62
    7
 10
144.35710638493492
 20
89.222470017135549
 11
144.35710638493492
 21
89.422470017135538
  0
LINE
  8
_0-0_
  6
CONTINUOUS
 62
    7
 10
144.35710638493492
 20
79.222470017135549
 11
144.35710638493492
 21
79.022470017135561
  0
LINE
  8
_0-0_
  6
CONTINUOUS
 62
    7
 10
187.32322346776857
 20
106.83934147177047
 11
187.52127708151687
 21
106.86717609196245
  0
LINE
  8
_0-0_
  6
CONTINUOUS
 62
    7
 10
167.51786209293715
 20
104.05587945256917
 11
167.31980847918885
 21
104.02804483237713
  0
LINE
  8
_0-0_
  6
CONTINUOUS
 62
    7
 10
187.52127708151687
 20
106.86717609196245
 11
187.72682546055279
 21
103.96756407241992
  0
LINE
  8
_0-0_
  6
CONTINUOUS
 62
    7
 10
167.31980847918885
 20
104.02804483237713
 11
167.92146408572131
 21
101.18410205321862
  0
LINE
  8
_0-0_
  6
CONTINUOUS
 62
    7
 10
144.35710638493492
 20
89.422470017135538
 11
147.25710638493496
 21
89.222470017135549
  0
LINE
  8
_0-0_
  6
CONTINUOUS
 62
    7
 10
144.35710638493492
 20
79.022470017135561
 11
147.25710638493496
 21
79.222470017135549
  0
LINE
  8
_0-0_
  6
CONTINUOUS
 62
    7
 10
257.35710638493492
 20
89.422470017135538
 11
254.45710638493489
 21
89.222470017135549
  0
LINE
  8
_0-0_
  6
CONTINUOUS
 62
    7
 10
254.45710638493489
 20
79.222470017135549
 11
257.35710638493492
 21
79.022470017135561
  0
LINE
  8
_0-0_
  6
CONTINUOUS
 62
    7
 10
254.45710638493489
 20
69.122470017135527
 11
230.85710638493492
 21
69.122470017135527
  0
LINE
  8
_0-0_
  6
CONTINUOUS
 62
    7
 10
254.45710638493489
 20
79.222470017135549
 11
254.45710638493489
 21
74.922470017135538
  0
LINE
  8
_0-0_
  6
CONTINUOUS
 62
    7
 10
254.45710638493489
 20
72.122470017135527
 11
254.45710638493489
 21
69.122470017135527
  0
LINE
  8
_0-0_
  6
CONTINUOUS
 62
    7
 10
254.45710638493489
 20
74.922470017135538
 11
247.35710638493492
 21
74.922470017135538
  0
LINE
  8
_0-0_
  6
CONTINUOUS
 62
    7
 10
254.45710638493489
 20
72.122470017135527
 11
247.35710638493492
 21
72.122470017135527
  0
LINE
  8
_0-0_
  6
CONTINUOUS
 62
    7
 10
247.35710638493492
 20
74.922470017135538
 11
247.35710638493492
 21
72.122470017135527
  0
LINE
  8
_0-0_
  6
CONTINUOUS
 62
    7
 10
147.25710638493496
 20
72.122470017135527
 11
154.35710638493492
 21
72.122470017135527
  0
LINE
  8
_0-0_
  6
CONTINUOUS
 62
    7
 10
147.25710638493496
 20
74.922470017135538
 11
154.35710638493492
 21
74.922470017135538
  0
LINE
  8
_0-0_
  6
CONTINUOUS
 62
    7
 10
154.35710638493492
 20
72.122470017135527
 11
154.35710638493492
 21
74.922470017135538
  0
LINE
  8
_0-0_
  6
CONTINUOUS
 62
    7
 10
147.25710638493496
 20
69.122470017135527
 11
147.25710638493496
 21
72.122470017135527
  0
LINE
  8
_0-0_
  6
CONTINUOUS
 62
    7
 10
147.25710638493496
 20
74.922470017135538
 11
147.25710638493496
 21
79.222470017135549
  0
LINE
  8
_0-0_
  6
CONTINUOUS
 62
    7
 10
244.55710638493491
 20
101.22247001713549
 11
244.35710638493492
 21
98.322470017135515
  0
LINE
  8
_0-0_
  6
CONTINUOUS
 62
    7
 10
224.15710638493493
 20
101.22247001713549
 11
224.35710638493492
 21
98.322470017135515
  0
LINE
  8
_0-0_
  6
CONTINUOUS
 62
    7
 10
208.74308874522677
 20
101.22247001713555
 11
208.74308874522677
 21
98.322470017135515
  0
LINE
  8
_0-0_
  6
CONTINUOUS
 62
    7
 10
230.85710638493492
 20
66.222470017135549
 11
210.85710638493492
 21
66.222470017135549
  0
LINE
  8
_0-0_
  6
CONTINUOUS
 62
    7
 10
190.85710638493492
 20
66.222470017135549
 11
170.85710638493492
 21
66.222470017135549
  0
LINE
  8
_0-0_
  6
CONTINUOUS
 62
    7
 10
106.77646112027924
 20
219.82716337762395
 11
126.77646112027924
 21
219.82716337762395
  0
LINE
  8
_0-0_
  6
CONTINUOUS
 62
    7
 10
85.776461120279237
 20
222.72716337762398
 11
106.77646112027924
 21
222.72716337762398
  0
LINE
  8
_0-0_
  6
CONTINUOUS
 62
    7
 10
126.77646112027924
 20
222.72716337762398
 11
147.77646112027924
 21
222.72716337762398
  0
LINE
  8
_0-0_
  6
CONTINUOUS
 62
    7
 10
126.77646112027924
 20
174.11314573791583
 11
147.77646112027924
 21
174.11314573791583
  0
LINE
  8
_0-0_
  6
CONTINUOUS
 62
    7
 10
106.77646112027924
 20
222.72716337762398
 11
106.77646112027924
 21
219.82716337762395
  0
LINE
  8
_0-0_
  6
CONTINUOUS
 62
    7
 10
126.77646112027924
 20
219.82716337762395
 11
126.77646112027924
 21
222.72716337762398
  0
LINE
  8
_0-0_
  6
CONTINUOUS
 62
    7
 10
144.87646112027926
 20
209.72716337762398
 11
144.87646112027926
 21
189.72716337762398
  0
LINE
  8
_0-0_
  6
CONTINUOUS
 62
    7
 10
88.676461120279214
 20
209.72716337762398
 11
88.676461120279214
 21
189.72716337762398
  0
LINE
  8
_0-0_
  6
CONTINUOUS
 62
    7
 10
85.776461120279237
 20
222.72716337762398
 11
85.776461120279237
 21
209.72716337762398
  0
LINE
  8
_0-0_
  6
CONTINUOUS
 62
    7
 10
147.77646112027924
 20
222.72716337762398
 11
147.77646112027924
 21
209.72716337762398
  0
LINE
  8
_0-0_
  6
CONTINUOUS
 62
    7
 10
147.77646112027924
 20
189.72716337762398
 11
147.77646112027924
 21
174.11314573791583
  0
LINE
  8
_0-0_
  6
CONTINUOUS
 62
    7
 10
85.776461120279237
 20
174.11314573791583
 11
106.77646112027924
 21
174.11314573791583
  0
LINE
  8
_0-0_
  6
CONTINUOUS
 62
    7
 10
85.776461120279237
 20
209.72716337762398
 11
88.676461120279214
 21
209.72716337762398
  0
LINE
  8
_0-0_
  6
CONTINUOUS
 62
    7
 10
144.87646112027926
 20
209.72716337762398
 11
147.77646112027924
 21
209.72716337762398
  0
LINE
  8
_0-0_
  6
CONTINUOUS
 62
    7
 10
85.776461120279237
 20
189.72716337762398
 11
88.676461120279214
 21
189.72716337762398
  0
LINE
  8
_0-0_
  6
CONTINUOUS
 62
    7
 10
144.87646112027926
 20
189.72716337762398
 11
147.77646112027924
 21
189.72716337762398
  0
CIRCLE
  8
_0-0_
  6
CONTINUOUS
 62
    7
 10
98.776461120279237
 20
205.72716337762398
 40
3.3999999999999999
  0
CIRCLE
  8
_0-0_
  6
CONTINUOUS
 62
    7
 10
134.77646112027924
 20
205.72716337762398
 40
3.3999999999999999
  0
CIRCLE
  8
_0-0_
  6
CONTINUOUS
 62
    7
 10
116.77646112027924
 20
190.72716337762398
 40
3.3999999999999999
  0
CIRCLE
  8
_0-0_
  6
CONTINUOUS
 62
    7
 10
116.77646112027924
 20
215.72716337762398
 40
1.45
  0
LINE
  8
_0-0_
  6
CONTINUOUS
 62
    7
 10
126.93926438090108
 20
168.12335367267792
 11
106.93926438090108
 21
168.12335367267792
  0
LINE
  8
_0-0_
  6
CONTINUOUS
 62
    7
 10
85.939264380901022
 20
127.69366246970043
 11
88.839264380901
 21
127.69366246970043
  0
LINE
  8
_0-0_
  6
CONTINUOUS
 62
    7
 10
85.939264380901022
 20
147.69366246970043
 11
88.839264380901056
 21
147.69366246970043
  0
LINE
  8
_0-0_
  6
CONTINUOUS
 62
    7
 10
145.03926438090105
 20
147.69366246970048
 11
147.93926438090102
 21
147.69366246970048
  0
LINE
  8
_0-0_
  6
CONTINUOUS
 62
    7
 10
145.03926438090105
 20
127.69366246970037
 11
147.93926438090102
 21
127.69366246970037
  0
LINE
  8
_0-0_
  6
CONTINUOUS
 62
    7
 10
126.93926438090108
 20
107.26397126672293
 11
106.93926438090102
 21
107.26397126672293
  0
LINE
  8
_0-0_
  6
CONTINUOUS
 62
    7
 10
88.839264380901028
 20
147.69366246970043
 11
88.839264380901028
 21
127.69366246970043
  0
LINE
  8
_0-0_
  6
CONTINUOUS
 62
    7
 10
145.03926438090105
 20
147.69366246970043
 11
145.03926438090105
 21
127.69366246970043
  0
LINE
  8
_0-0_
  6
CONTINUOUS
 62
    7
 10
126.93926438090108
 20
171.0233536726779
 11
126.93926438090108
 21
168.12335367267792
  0
LINE
  8
_0-0_
  6
CONTINUOUS
 62
    7
 10
126.93926438090108
 20
107.26397126672293
 11
126.93926438090108
 21
104.36397126672296
  0
LINE
  8
_0-0_
  6
CONTINUOUS
 62
    7
 10
106.93926438090102
 20
171.0233536726779
 11
106.93926438090102
 21
168.12335367267798
  0
LINE
  8
_0-0_
  6
CONTINUOUS
 62
    7
 10
106.93926438090102
 20
107.26397126672293
 11
106.93926438090102
 21
104.36397126672296
  0
LINE
  8
_0-0_
  6
CONTINUOUS
 62
    7
 10
85.939264380901022
 20
171.0233536726779
 11
85.939264380901022
 21
147.69366246970048
  0
LINE
  8
_0-0_
  6
CONTINUOUS
 62
    7
 10
85.939264380901022
 20
127.69366246970048
 11
85.939264380901022
 21
104.3639712667229
  0
LINE
  8
_0-0_
  6
CONTINUOUS
 62
    7
 10
85.939264380901022
 20
171.0233536726779
 11
106.93926438090102
 21
171.0233536726779
  0
LINE
  8
_0-0_
  6
CONTINUOUS
 62
    7
 10
126.93926438090108
 20
171.0233536726779
 11
147.93926438090102
 21
171.0233536726779
  0
LINE
  8
_0-0_
  6
CONTINUOUS
 62
    7
 10
147.93926438090108
 20
171.0233536726779
 11
147.93926438090108
 21
147.69366246970048
  0
LINE
  8
_0-0_
  6
CONTINUOUS
 62
    7
 10
147.93926438090102
 20
127.69366246970037
 11
147.93926438090102
 21
104.36397126672296
  0
LINE
  8
_0-0_
  6
CONTINUOUS
 62
    7
 10
85.939264380901022
 20
104.36397126672296
 11
106.93926438090108
 21
104.36397126672296
  0
LINE
  8
_0-0_
  6
CONTINUOUS
 62
    7
 10
126.93926438090108
 20
104.36397126672296
 11
147.93926438090102
 21
104.36397126672296
  0
CIRCLE
  8
_0-0_
  6
CONTINUOUS
 62
    7
 10
116.93926438090102
 20
137.69366246970048
 40
5.9000000000000004
  0
LINE
  8
_0-0_
  6
CONTINUOUS
 62
    7
 10
196.2061586919794
 20
35.002367726065586
 11
203.10615869197937
 21
35.002367726065586
  0
LINE
  8
_0-0_
  6
CONTINUOUS
 62
    7
 10
180.20615869197934
 20
52.102367726065609
 11
183.10615869197937
 21
52.102367726065609
  0
LINE
  8
_0-0_
  6
CONTINUOUS
 62
    7
 10
121.10615869197937
 20
52.102367726065609
 11
124.00615869197941
 21
52.102367726065609
  0
LINE
  8
_0-0_
  6
CONTINUOUS
 62
    7
 10
121.10615869197937
 20
42.102367726065609
 11
124.00615869197941
 21
42.102367726065609
  0
LINE
  8
_0-0_
  6
CONTINUOUS
 62
    7
 10
180.20615869197934
 20
42.102367726065609
 11
183.10615869197937
 21
42.102367726065609
  0
LINE
  8
_0-0_
  6
CONTINUOUS
 62
    7
 10
162.10615869197937
 20
61.202367726065631
 11
183.10615869197937
 21
61.202367726065631
  0
LINE
  8
_0-0_
  6
CONTINUOUS
 62
    7
 10
142.10615869197937
 20
61.202367726065631
 11
121.10615869197937
 21
61.202367726065631
  0
LINE
  8
_0-0_
  6
CONTINUOUS
 62
    7
 10
183.10615869197937
 20
61.202367726065631
 11
183.10615869197937
 21
52.102367726065609
  0
LINE
  8
_0-0_
  6
CONTINUOUS
 62
    7
 10
180.20615869197934
 20
52.102367726065609
 11
180.20615869197934
 21
42.102367726065609
  0
LINE
  8
_0-0_
  6
CONTINUOUS
 62
    7
 10
124.00615869197941
 20
52.102367726065609
 11
124.00615869197941
 21
42.102367726065609
  0
LINE
  8
_0-0_
  6
CONTINUOUS
 62
    7
 10
121.10615869197937
 20
42.102367726065609
 11
121.10615869197937
 21
35.002367726065586
  0
LINE
  8
_0-0_
  6
CONTINUOUS
 62
    7
 10
121.10615869197937
 20
52.102367726065609
 11
121.10615869197937
 21
61.202367726065631
  0
LINE
  8
_0-0_
  6
CONTINUOUS
 62
    7
 10
252.20615869197934
 20
52.102367726065609
 11
255.10615869197937
 21
52.102367726065609
  0
LINE
  8
_0-0_
  6
CONTINUOUS
 62
    7
 10
193.10615869197937
 20
52.102367726065609
 11
196.00615869197941
 21
52.102367726065609
  0
LINE
  8
_0-0_
  6
CONTINUOUS
 62
    7
 10
193.10615869197937
 20
42.102367726065609
 11
196.00615869197941
 21
42.102367726065609
  0
LINE
  8
_0-0_
  6
CONTINUOUS
 62
    7
 10
252.20615869197934
 20
42.102367726065609
 11
255.10615869197937
 21
42.102367726065609
  0
LINE
  8
_0-0_
  6
CONTINUOUS
 62
    7
 10
252.20615869197934
 20
52.102367726065609
 11
252.20615869197934
 21
42.102367726065609
  0
LINE
  8
_0-0_
  6
CONTINUOUS
 62
    7
 10
196.00615869197941
 20
52.102367726065609
 11
196.00615869197941
 21
42.102367726065609
  0
LINE
  8
_0-0_
  6
CONTINUOUS
 62
    7
 10
193.10615869197937
 20
52.102367726065609
 11
193.10615869197937
 21
60.817134292989579
  0
LINE
  8
_0-0_
  6
CONTINUOUS
 62
    7
 10
255.10615869197937
 20
60.817134292989579
 11
255.10615869197937
 21
52.102367726065609
  0
LINE
  8
_0-0_
  6
CONTINUOUS
 62
    7
 10
234.10615869197937
 20
60.817134292989579
 11
255.10615869197937
 21
60.817134292989579
  0
LINE
  8
_0-0_
  6
CONTINUOUS
 62
    7
 10
193.10615869197937
 20
60.817134292989579
 11
214.10615869197937
 21
60.817134292989579
  0
LINE
  8
_0-0_
  6
CONTINUOUS
 62
    7
 10
121.10615869197937
 20
35.002367726065586
 11
121.10615869197937
 21
32.002367726065586
  0
LINE
  8
_0-0_
  6
CONTINUOUS
 62
    7
 10
193.10615869197937
 20
42.102367726065609
 11
193.10615869197937
 21
32.002367726065586
  0
LINE
  8
_0-0_
  6
CONTINUOUS
 62
    7
 10
183.10615869197937
 20
42.102367726065609
 11
183.10615869197937
 21
32.002367726065586
  0
LINE
  8
_0-0_
  6
CONTINUOUS
 62
    7
 10
124.20615869197934
 20
35.002367726065586
 11
131.10615869197937
 21
35.002367726065586
  0
LINE
  8
_0-0_
  6
CONTINUOUS
 62
    7
 10
173.10615869197937
 20
35.002367726065586
 11
180.00615869197941
 21
35.002367726065586
  0
LINE
  8
_0-0_
  6
CONTINUOUS
 62
    7
 10
245.10615869197937
 20
35.002367726065586
 11
252.00615869197935
 21
35.002367726065586
  0
LINE
  8
_0-0_
  6
CONTINUOUS
 62
    7
 10
234.30615869197936
 20
64.088313642595381
 11
234.10615869197937
 21
60.817134292989579
  0
LINE
  8
_0-0_
  6
CONTINUOUS
 62
    7
 10
213.90615869197939
 20
64.088313642595381
 11
214.10615869197937
 21
60.817134292989579
  0
LINE
  8
_0-0_
  6
CONTINUOUS
 62
    7
 10
234.30615869197936
 20
29.102367726065609
 11
234.10615869197937
 21
32.002367726065586
  0
LINE
  8
_0-0_
  6
CONTINUOUS
 62
    7
 10
213.90615869197939
 20
29.102367726065609
 11
214.10615869197937
 21
32.002367726065586
  0
LINE
  8
_0-0_
  6
CONTINUOUS
 62
    7
 10
162.30615869197936
 20
64.102367726065609
 11
162.10615869197937
 21
61.202367726065631
  0
LINE
  8
_0-0_
  6
CONTINUOUS
 62
    7
 10
141.90615869197939
 20
64.102367726065609
 11
142.10615869197937
 21
61.202367726065631
  0
LINE
  8
_0-0_
  6
CONTINUOUS
 62
    7
 10
162.10615869197937
 20
32.002367726065586
 11
162.30615869197936
 21
29.102367726065609
  0
LINE
  8
_0-0_
  6
CONTINUOUS
 62
    7
 10
142.10615869197937
 20
32.002367726065586
 11
141.90615869197939
 21
29.102367726065609
  0
LINE
  8
_0-0_
  6
CONTINUOUS
 62
    7
 10
131.10615869197937
 20
35.002367726065586
 11
131.10615869197937
 21
37.802367726065597
  0
LINE
  8
_0-0_
  6
CONTINUOUS
 62
    7
 10
124.20615869197934
 20
35.002367726065586
 11
124.20615869197934
 21
37.802367726065597
  0
LINE
  8
_0-0_
  6
CONTINUOUS
 62
    7
 10
173.10615869197937
 20
35.002367726065586
 11
173.10615869197937
 21
37.802367726065597
  0
LINE
  8
_0-0_
  6
CONTINUOUS
 62
    7
 10
180.00615869197941
 20
35.002367726065586
 11
180.00615869197941
 21
37.802367726065597
  0
LINE
  8
_0-0_
  6
CONTINUOUS
 62
    7
 10
252.00615869197935
 20
35.002367726065586
 11
252.00615869197935
 21
37.802367726065654
  0
LINE
  8
_0-0_
  6
CONTINUOUS
 62
    7
 10
245.10615869197937
 20
35.002367726065586
 11
245.10615869197937
 21
37.802367726065654
  0
LINE
  8
_0-0_
  6
CONTINUOUS
 62
    7
 10
203.10615869197937
 20
35.002367726065586
 11
203.10615869197937
 21
37.802367726065654
  0
LINE
  8
_0-0_
  6
CONTINUOUS
 62
    7
 10
196.2061586919794
 20
35.002367726065586
 11
196.2061586919794
 21
37.802367726065654
  0
LINE
  8
_0-0_
  6
CONTINUOUS
 62
    7
 10
252.00615869197935
 20
37.802367726065654
 11
245.10615869197937
 21
37.802367726065654
  0
LINE
  8
_0-0_
  6
CONTINUOUS
 62
    7
 10
203.10615869197937
 20
37.802367726065654
 11
196.2061586919794
 21
37.802367726065654
  0
LINE
  8
_0-0_
  6
CONTINUOUS
 62
    7
 10
180.00615869197941
 20
37.802367726065597
 11
173.10615869197937
 21
37.802367726065597
  0
LINE
  8
_0-0_
  6
CONTINUOUS
 62
    7
 10
131.10615869197937
 20
37.802367726065597
 11
124.20615869197934
 21
37.802367726065597
  0
LINE
  8
_0-0_
  6
CONTINUOUS
 62
    7
 10
193.10615869197937
 20
32.002367726065586
 11
214.10615869197937
 21
32.002367726065586
  0
LINE
  8
_0-0_
  6
CONTINUOUS
 62
    7
 10
255.10615869197937
 20
32.002367726065586
 11
234.10615869197937
 21
32.002367726065586
  0
CIRCLE
  8
_0-0_
  6
CONTINUOUS
 62
    7
 10
152.10615869197937
 20
41.102367726065609
 40
4.4000000000000004
  0
LINE
  8
_0-0_
  6
CONTINUOUS
 62
    7
 10
80.427167095340621
 20
98.385517683103217
 11
136.62716709534067
 21
98.385517683103217
  0
LINE
  8
_0-0_
  6
CONTINUOUS
 62
    7
 10
80.427167095340621
 20
68.385517683103217
 11
136.62716709534067
 21
68.385517683103217
  0
CIRCLE
  8
_0-0_
  6
CONTINUOUS
 62
    7
 10
108.52716709534064
 20
83.385517683103274
 40
5.9000000000000004
  0
CIRCLE
  8
_0-0_
  6
CONTINUOUS
 62
    7
 10
73.656360995122668
 20
33.344531844323058
 40
1.2
  0
LINE
  8
_0-0_
  6
CONTINUOUS
 62
    7
 10
75.756360995122634
 20
28.344531844323058
 11
68.456360995122679
 21
28.344531844323058
  0
LINE
  8
_0-0_
  6
CONTINUOUS
 62
    7
 10
78.656360995122668
 20
31.244531844323092
 11
78.656360995122668
 21
38.544531844323046
  0
LINE
  8
_0-0_
  6
CONTINUOUS
 62
    7
 10
68.456360995122679
 20
28.344531844323058
 11
68.556360995122645
 21
31.244531844323092
  0
LINE
  8
_0-0_
  6
CONTINUOUS
 62
    7
 10
75.656360995122668
 20
31.244531844323092
 11
75.756360995122634
 21
28.344531844323058
  0
LINE
  8
_0-0_
  6
CONTINUOUS
 62
    7
 10
75.756360995122634
 20
31.344531844323058
 11
78.656360995122668
 21
31.244531844323092
  0
LINE
  8
_0-0_
  6
CONTINUOUS
 62
    7
 10
75.756360995122634
 20
38.444531844323137
 11
78.656360995122668
 21
38.544531844323046
  0
ARC
  8
_0-0_
  6
CONTINUOUS
 62
    7
 10
75.756360995122634
 20
31.244531844323092
 40
7.2000000000000002
 50
90
 51
180
  0
ARC
  8
_0-0_
  6
CONTINUOUS
 62
    7
 10
75.756360995122634
 20
31.244531844323092
 40
0.1
 50
90
 51
183.94986802186048
  0
CIRCLE
  8
_0-0_
  6
CONTINUOUS
 62
    7
 10
74.185772759828524
 20
45.16806125608781
 40
1.2
  0
LINE
  8
_0-0_
  6
CONTINUOUS
 62
    7
 10
76.28577275982849
 20
40.16806125608781
 11
68.985772759828535
 21
40.16806125608781
  0
LINE
  8
_0-0_
  6
CONTINUOUS
 62
    7
 10
79.185772759828524
 20
43.068061256087844
 11
79.185772759828524
 21
50.368061256087799
  0
LINE
  8
_0-0_
  6
CONTINUOUS
 62
    7
 10
68.985772759828535
 20
40.16806125608781
 11
69.085772759828501
 21
43.068061256087844
  0
LINE
  8
_0-0_
  6
CONTINUOUS
 62
    7
 10
76.185772759828524
 20
43.068061256087844
 11
76.28577275982849
 21
40.16806125608781
  0
LINE
  8
_0-0_
  6
CONTINUOUS
 62
    7
 10
76.28577275982849
 20
43.16806125608781
 11
79.185772759828524
 21
43.068061256087844
  0
LINE
  8
_0-0_
  6
CONTINUOUS
 62
    7
 10
76.28577275982849
 20
50.26806125608789
 11
79.185772759828524
 21
50.368061256087799
  0
ARC
  8
_0-0_
  6
CONTINUOUS
 62
    7
 10
76.28577275982849
 20
43.068061256087844
 40
7.2000000000000002
 50
90
 51
180
  0
ARC
  8
_0-0_
  6
CONTINUOUS
 62
    7
 10
76.28577275982849
 20
43.068061256087844
 40
0.1
 50
90
 51
183.94986802186048
  0
CIRCLE
  8
_0-0_
  6
CONTINUOUS
 62
    7
 10
74.538713936299104
 20
56.815120079617202
 40
1.2
  0
LINE
  8
_0-0_
  6
CONTINUOUS
 62
    7
 10
76.638713936299069
 20
51.815120079617202
 11
69.338713936299115
 21
51.815120079617202
  0
LINE
  8
_0-0_
  6
CONTINUOUS
 62
    7
 10
79.538713936299104
 20
54.715120079617236
 11
79.538713936299104
 21
62.015120079617191
  0
LINE
  8
_0-0_
  6
CONTINUOUS
 62
    7
 10
69.338713936299115
 20
51.815120079617202
 11
69.438713936299081
 21
54.715120079617236
  0
LINE
  8
_0-0_
  6
CONTINUOUS
 62
    7
 10
76.538713936299104
 20
54.715120079617236
 11
76.638713936299069
 21
51.815120079617202
  0
LINE
  8
_0-0_
  6
CONTINUOUS
 62
    7
 10
76.638713936299069
 20
54.815120079617202
 11
79.538713936299104
 21
54.715120079617236
  0
LINE
  8
_0-0_
  6
CONTINUOUS
 62
    7
 10
76.638713936299069
 20
61.915120079617282
 11
79.538713936299104
 21
62.015120079617191
  0
ARC
  8
_0-0_
  6
CONTINUOUS
 62
    7
 10
76.638713936299069
 20
54.715120079617236
 40
7.2000000000000002
 50
90
 51
180
  0
ARC
  8
_0-0_
  6
CONTINUOUS
 62
    7
 10
76.638713936299069
 20
54.715120079617236
 40
0.1
 50
90
 51
183.94986802186048
  0
CIRCLE
  8
_0-0_
  6
CONTINUOUS
 62
    7
 10
85.719494417215941
 20
34.152320515347185
 40
1.2
  0
LINE
  8
_0-0_
  6
CONTINUOUS
 62
    7
 10
87.819494417215907
 20
29.152320515347185
 11
80.519494417215952
 21
29.152320515347185
  0
LINE
  8
_0-0_
  6
CONTINUOUS
 62
    7
 10
90.719494417215941
 20
32.052320515347219
 11
90.719494417215941
 21
39.352320515347174
  0
LINE
  8
_0-0_
  6
CONTINUOUS
 62
    7
 10
80.519494417215952
 20
29.152320515347185
 11
80.619494417215918
 21
32.052320515347219
  0
LINE
  8
_0-0_
  6
CONTINUOUS
 62
    7
 10
87.719494417215941
 20
32.052320515347219
 11
87.819494417215907
 21
29.152320515347185
  0
LINE
  8
_0-0_
  6
CONTINUOUS
 62
    7
 10
87.819494417215907
 20
32.152320515347185
 11
90.719494417215941
 21
32.052320515347219
  0
LINE
  8
_0-0_
  6
CONTINUOUS
 62
    7
 10
87.819494417215907
 20
39.252320515347265
 11
90.719494417215941
 21
39.352320515347174
  0
ARC
  8
_0-0_
  6
CONTINUOUS
 62
    7
 10
87.819494417215907
 20
32.052320515347219
 40
7.2000000000000002
 50
90
 51
180
  0
ARC
  8
_0-0_
  6
CONTINUOUS
 62
    7
 10
87.819494417215907
 20
32.052320515347219
 40
0.1
 50
90
 51
183.94986802186048
  0
CIRCLE
  8
_0-0_
  6
CONTINUOUS
 62
    7
 10
85.895965005451245
 20
45.975849927111938
 40
1.2
  0
LINE
  8
_0-0_
  6
CONTINUOUS
 62
    7
 10
87.995965005451211
 20
40.975849927111938
 11
80.695965005451257
 21
40.975849927111938
  0
LINE
  8
_0-0_
  6
CONTINUOUS
 62
    7
 10
90.895965005451245
 20
43.875849927111972
 11
90.895965005451245
 21
51.175849927111926
  0
LINE
  8
_0-0_
  6
CONTINUOUS
 62
    7
 10
80.695965005451257
 20
40.975849927111938
 11
80.795965005451222
 21
43.875849927111972
  0
LINE
  8
_0-0_
  6
CONTINUOUS
 62
    7
 10
87.895965005451245
 20
43.875849927111972
 11
87.995965005451211
 21
40.975849927111938
  0
LINE
  8
_0-0_
  6
CONTINUOUS
 62
    7
 10
87.995965005451211
 20
43.975849927111938
 11
90.895965005451245
 21
43.875849927111972
  0
LINE
  8
_0-0_
  6
CONTINUOUS
 62
    7
 10
87.995965005451211
 20
51.075849927112017
 11
90.895965005451245
 21
51.175849927111926
  0
ARC
  8
_0-0_
  6
CONTINUOUS
 62
    7
 10
87.995965005451211
 20
43.875849927111972
 40
7.2000000000000002
 50
90
 51
180
  0
ARC
  8
_0-0_
  6
CONTINUOUS
 62
    7
 10
87.995965005451211
 20
43.875849927111972
 40
0.1
 50
90
 51
183.94986802186048
  0
CIRCLE
  8
_0-0_
  6
CONTINUOUS
 62
    7
 10
85.895965005451245
 20
57.799379338876633
 40
1.2
  0
LINE
  8
_0-0_
  6
CONTINUOUS
 62
    7
 10
87.995965005451211
 20
52.799379338876633
 11
80.695965005451257
 21
52.799379338876633
  0
LINE
  8
_0-0_
  6
CONTINUOUS
 62
    7
 10
90.895965005451245
 20
55.699379338876668
 11
90.895965005451245
 21
62.999379338876622
  0
LINE
  8
_0-0_
  6
CONTINUOUS
 62
    7
 10
80.695965005451257
 20
52.799379338876633
 11
80.795965005451222
 21
55.699379338876668
  0
LINE
  8
_0-0_
  6
CONTINUOUS
 62
    7
 10
87.895965005451245
 20
55.699379338876668
 11
87.995965005451211
 21
52.799379338876633
  0
LINE
  8
_0-0_
  6
CONTINUOUS
 62
    7
 10
87.995965005451211
 20
55.799379338876633
 11
90.895965005451245
 21
55.699379338876668
  0
LINE
  8
_0-0_
  6
CONTINUOUS
 62
    7
 10
87.995965005451211
 20
62.899379338876713
 11
90.895965005451245
 21
62.999379338876622
  0
ARC
  8
_0-0_
  6
CONTINUOUS
 62
    7
 10
87.995965005451211
 20
55.699379338876668
 40
7.2000000000000002
 50
90
 51
180
  0
ARC
  8
_0-0_
  6
CONTINUOUS
 62
    7
 10
87.995965005451211
 20
55.699379338876668
 40
0.1
 50
90
 51
183.94986802186048
  0
LINE
  8
_0-0_
  6
CONTINUOUS
 62
    7
 10
74.946339247935356
 20
203.17870940423609
 11
80.589616768497024
 21
203.17870940423609
  0
LINE
  8
_0-0_
  6
CONTINUOUS
 62
    7
 10
74.946339247935356
 20
162.17870940423609
 11
74.946339247935356
 21
141.17870940423609
  0
LINE
  8
_0-0_
  6
CONTINUOUS
 62
    7
 10
80.589616768496995
 20
141.17870940423614
 11
74.946339247935356
 21
141.17870940423614
  0
LINE
  8
_0-0_
  6
CONTINUOUS
 62
    7
 10
80.589616768496995
 20
162.17870940423609
 11
80.589616768496995
 21
141.17870940423609
  0
LINE
  8
_0-0_
  6
CONTINUOUS
 62
    7
 10
74.946339247935356
 20
203.17870940423609
 11
74.946339247935356
 21
182.17870940423609
  0
LINE
  8
_0-0_
  6
CONTINUOUS
 62
    7
 10
80.589616768497024
 20
203.17870940423609
 11
80.589616768497024
 21
182.17870940423609
  0
LINE
  8
_0-0_
  6
CONTINUOUS
 62
    7
 10
72.04633924793535
 20
182.37870940423602
 11
74.946339247935356
 21
182.17870940423609
  0
LINE
  8
_0-0_
  6
CONTINUOUS
 62
    7
 10
82.434244495999536
 20
182.37870940423608
 11
80.589616768497024
 21
182.17870940423609
  0
LINE
  8
_0-0_
  6
CONTINUOUS
 62
    7
 10
72.046339247935322
 20
161.97870940423604
 11
74.946339247935356
 21
162.17870940423609
  0
LINE
  8
_0-0_
  6
CONTINUOUS
 62
    7
 10
82.434244495999508
 20
161.9787094042361
 11
80.589616768496995
 21
162.17870940423609
  0
LINE
  8
_0-0_
  6
CONTINUOUS
 62
    7
 10
85.776461120279237
 20
189.72716337762398
 11
85.776461120279237
 21
174.11314573791583
  0
LINE
  8
_0-0_
  6
CONTINUOUS
 62
    7
 10
80.427167095340621
 20
98.385517683103217
 11
80.427167095340621
 21
68.385517683103217
  0
LINE
  8
_0-0_
  6
CONTINUOUS
 62
    7
 10
136.62716709534067
 20
68.385517683103217
 11
136.62716709534067
 21
98.385517683103217
  0
LINE
  8
_0-0_
  6
CONTINUOUS
 62
    7
 10
141.90615869197939
 20
29.102367726065609
 11
162.30615869197936
 21
29.102367726065609
  0
LINE
  8
_0-0_
  6
CONTINUOUS
 62
    7
 10
213.90615869197939
 20
29.102367726065609
 11
234.30615869197936
 21
29.102367726065609
  0
LINE
  8
_0-0_
  6
CONTINUOUS
 62
    7
 10
141.90615869197939
 20
64.102367726065609
 11
162.30615869197936
 21
64.102367726065609
  0
LINE
  8
_0-0_
  6
CONTINUOUS
 62
    7
 10
213.90615869197939
 20
64.088313642595381
 11
234.30615869197936
 21
64.088313642595381
  0
LINE
  8
_0-0_
  6
CONTINUOUS
 62
    7
 10
72.04633924793535
 20
182.37870940423602
 11
72.04633924793535
 21
161.97870940423604
  0
LINE
  8
_0-0_
  6
CONTINUOUS
 62
    7
 10
82.434244495999508
 20
161.9787094042361
 11
82.434244495999508
 21
182.37870940423608
  0
LINE
  8
_0-0_
  6
CONTINUOUS
 62
    7
 10
106.77646112027924
 20
174.11314573791583
 11
106.77646112027924
 21
177.24314573791582
  0
LINE
  8
_0-0_
  6
CONTINUOUS
 62
    7
 10
126.77646112027924
 20
174.11314573791583
 11
126.77646112027924
 21
177.24314573791582
  0
LINE
  8
_0-0_
  6
CONTINUOUS
 62
    7
 10
106.77646112027924
 20
177.24314573791582
 11
126.77646112027924
 21
177.24314573791582
  0
ENDSEC
  0
EOF
